<?xml version="1.0" standalone="no"?>
<!DOCTYPE svg PUBLIC "-//W3C//DTD SVG 1.1//EN" "http://www.w3.org/Graphics/SVG/1.1/DTD/svg11.dtd" >
<!--
2013-9-30: Created.
-->
<svg>
<metadata>
Created by iconfont
</metadata>
<defs>

<font id="iconfont" horiz-adv-x="1024" >
  <font-face
    font-family="iconfont"
    font-weight="500"
    font-stretch="normal"
    units-per-em="1024"
    ascent="896"
    descent="-128"
  />
    <missing-glyph />
    
    <glyph glyph-name="fenxiang" unicode="&#59085;" d="M735.4624 276.736c-42.112 0-78.3104-23.8336-96.9984-58.4704l-245.4784 124.4672a110.0544 110.0544 0 0 1 9.7024 44.9024 109.824 109.824 0 0 1-11.0336 47.4112l256.3328 105.6256a110.08 110.08 0 0 1 87.0656-43.1104 110.6688 110.6688 0 0 1 0 221.3888 110.6688 110.6688 0 0 1-110.6688-110.6944c0-5.7344 0.8448-11.2384 1.664-16.7424l-272.0768-112.128a110.6944 110.6944 0 1 1-61.952-202.3936c24.5248 0 46.976 8.2432 65.3568 21.7856l267.7248-135.7312a110.5152 110.5152 0 0 1 221.056 2.9952 110.72 110.72 0 0 1-110.6944 110.6944z"  horiz-adv-x="1024" />

    
    <glyph glyph-name="youshou" unicode="&#59086;" d="M176.4352 128c0 14.08 11.52 25.6 25.6 25.6h613.9136c14.08 0 25.6-11.52 25.6-25.6s-11.52-25.6-25.6-25.6H202.0352c-14.08 0-25.6 11.52-25.6 25.6zM630.272 504.3456l-0.0256-218.3424 211.3024 109.1584-211.2768 109.184c0 0.5376 0 0.5376 0 0zM177.024 662.7328c0 14.08 11.52 25.6 25.6 25.6h613.9136c14.08 0 25.6-11.52 25.6-25.6s-11.52-25.6-25.6-25.6H202.624c-14.08 0-25.6 11.52-25.6 25.6zM176.4352 395.392c0 14.08 11.52 25.6 25.6 25.6H565.248c14.08 0 25.6-11.52 25.6-25.6s-11.52-25.6-25.6-25.6H202.0352c-14.08-0.0256-25.6 11.52-25.6 25.6z"  horiz-adv-x="1024" />

    
    <glyph glyph-name="zuoshou" unicode="&#59087;" d="M842.1376 662.7328c0-14.08-11.52-25.6-25.6-25.6H202.624c-14.08 0-25.6 11.52-25.6 25.6s11.52 25.6 25.6 25.6h613.9136c14.08 0 25.6-11.52 25.6-25.6zM388.3008 286.3872v218.3424l-211.2768-109.184 211.2768-109.1584c0-0.5376 0-0.5376 0 0zM841.5488 128c0-14.08-11.52-25.6-25.6-25.6H202.0352c-14.08 0-25.6 11.52-25.6 25.6s11.52 25.6 25.6 25.6h613.9136c14.08 0 25.6-11.52 25.6-25.6zM842.1376 395.3408c0-14.08-11.52-25.6-25.6-25.6H453.3248c-14.08 0-25.6 11.52-25.6 25.6v0.0256c0 14.08 11.52 25.6 25.6 25.6h363.2128c14.08 0 25.6-11.52 25.6-25.6256z"  horiz-adv-x="1024" />

    
    <glyph glyph-name="shuaxin" unicode="&#59088;" d="M777.7792 387.84c0.2304 4.4032 0.3584 8.8832 0.3584 13.3376 0 148.1728-120.1152 268.2624-268.2624 268.2624-51.6096 0-99.7888-14.592-140.6976-39.8592a30.976 30.976 0 1 1 32.384-52.608 206.4128 206.4128 0 0 0 314.2912-189.0816h-60.0576l92.3904-132.2496 92.3136 132.2496h-62.72v-0.0512z m-141.824-157.312a30.5408 30.5408 0 0 1-17.7664-5.6064 206.4384 206.4384 0 0 0-314.2656 189.0816h60.0064l-92.3648 132.2752L179.2 414.0288h62.7712c-0.2304-4.4288-0.3584-8.9088-0.3584-13.3632 0-148.1472 120.0896-268.2624 268.2624-268.2624 51.6352 0 99.7888 14.5664 140.6976 39.8592a30.9504 30.9504 0 0 1-14.6176 58.2656z"  horiz-adv-x="1024" />

    
    <glyph glyph-name="gerenhuayonghu" unicode="&#59089;" d="M725.376 270.2592l-48.8192 7.1168a9.984 9.984 0 0 0-7.4752 5.4016l-21.8624 44.2624a9.9072 9.9072 0 0 1-17.7408 0l-21.8624-44.2624a9.9584 9.9584 0 0 0-7.4752-5.4016l-48.8448-7.1168a9.9072 9.9072 0 0 1-5.504-16.8704l35.3536-34.432c2.3552-2.304 3.4048-5.5552 2.8672-8.7808l-8.3456-48.64a9.9328 9.9328 0 0 1 14.3872-10.4704l43.6736 22.9376a9.8816 9.8816 0 0 0 9.1904 0l43.6736-22.9376a9.9328 9.9328 0 0 1 14.3616 10.4704l-8.2944 48.64a9.984 9.984 0 0 0 2.8416 8.7808l35.3536 34.432a9.856 9.856 0 0 1-5.4784 16.8704zM385.4336 381.056h-63.872a123.648 123.648 0 0 1-123.648-123.6224v-147.8144a26.5472 26.5472 0 1 1 53.1456 0v147.8144c0 18.6624 7.3984 36.352 20.7616 49.7152a70.016 70.016 0 0 0 49.7408 20.7616h63.872a26.5472 26.5472 0 1 1 0 53.1456zM539.3408 673.792c-29.1072 29.1072-67.84 45.1328-109.0048 45.1328s-79.8976-16.0256-109.0048-45.1328-45.1072-67.84-45.1072-108.9792 16-79.8976 45.1072-109.0048 67.7888-45.1072 109.0048-45.1072a153.1904 153.1904 0 0 1 109.0048 45.1072c29.1072 29.1072 45.1328 67.84 45.1328 109.0048s-16.0256 79.872-45.1328 108.9792z m-35.072-182.912a103.8592 103.8592 0 0 0-73.9072-30.592c-27.9552 0-54.1696 10.8544-73.9072 30.592s-30.6176 46.0032-30.6176 73.9072 10.88 54.1696 30.6176 73.9072a103.8592 103.8592 0 0 0 73.9072 30.592 103.936 103.936 0 0 0 73.9072-30.592 103.8848 103.8848 0 0 0 30.6176-73.9072 103.936 103.936 0 0 0-30.6176-73.9072zM770.5088 373.3504a185.7536 185.7536 0 0 1-132.1216 54.7072 185.8304 185.8304 0 0 1-132.1728-54.7072 185.7024 185.7024 0 0 1-54.6816-132.1472c0-49.8688 19.4048-96.8448 54.6816-132.1216a185.6768 185.6768 0 0 1 132.1728-54.6816 185.728 185.728 0 0 1 132.1216 54.6816 185.6768 185.6768 0 0 1 54.6816 132.1216 185.8048 185.8048 0 0 1-54.6816 132.1472z m-35.7632-228.5312a135.3728 135.3728 0 0 0-96.384-39.9104 135.168 135.168 0 0 0-96.4352 39.9104 135.4496 135.4496 0 0 0-39.936 96.384c0 36.4032 14.1824 70.656 39.936 96.4096a135.3728 135.3728 0 0 0 96.4352 39.936c36.3776 0 70.6048-14.1568 96.384-39.936a135.3728 135.3728 0 0 0 39.936-96.4096 135.3472 135.3472 0 0 0-39.936-96.384z"  horiz-adv-x="1024" />

    
    <glyph glyph-name="rili" unicode="&#59090;" d="M787.456 634.5984h-57.5744c-11.5968 0-20.992-14.1568-20.992-25.8048s9.3952-25.3952 20.992-25.3952h47.616c7.296 0 13.44-6.1952 13.44-13.4656v-66.4832H228.224v66.4832c0 7.296 6.144 13.4656 13.44 13.4656h49.3312c11.6224 0 21.0176 13.7728 21.0176 25.3952s-9.3952 25.8048-21.0176 25.8048H232.5248a55.552 55.552 0 0 1-55.5008-55.5264v-415.9488a55.552 55.552 0 0 1 55.5008-55.5264H787.456a55.552 55.552 0 0 1 55.5008 55.5264V579.072a55.552 55.552 0 0 1-55.5008 55.5264m-9.9584-475.8016H241.664a13.6192 13.6192 0 0 0-13.44 13.4656l1.5104 281.0368h562.7136l-1.5104-281.0368c0-7.296-6.144-13.4656-13.44-13.4656M389.5808 577.1264c0-14.08-11.52-25.6-25.6-25.6s-25.6 11.52-25.6 25.6v72.96c0 14.08 11.52 25.6 25.6 25.6s25.6-11.52 25.6-25.6v-72.96zM681.6 577.1264c0-14.08-11.52-25.6-25.6-25.6s-25.6 11.52-25.6 25.6v72.96c0 14.08 11.52 25.6 25.6 25.6s25.6-11.52 25.6-25.6v-72.96zM598.4 608.9984c0-14.08-11.52-25.6-25.6-25.6h-125.6192c-14.08 0-25.6 11.52-25.6 25.6s11.52 25.6 25.6 25.6h125.6192c14.08 0 25.6-11.52 25.6-25.6z"  horiz-adv-x="1024" />

    
    <glyph glyph-name="tianxie" unicode="&#59091;" d="M413.056 121.344l263.6544 392.448c16.9472 25.1392 10.5728 60.1088-13.9008 77.5936l-118.912 85.0176a53.248 53.248 0 0 1-75.3664-13.8752L204.8 270.08l1.1776-195.7888c0.0512-7.168 3.5072-13.952 9.2416-18.048a20.9664 20.9664 0 0 1 19.6608-2.6112l178.176 67.712z m42.9824 444.0064l136.9088-97.7152-190.9248-284.2368-136.9344 97.792 190.9504 284.16z m63.232 74.4704l118.9888-84.9664a11.52 11.52 0 0 0 2.7392-15.5136l-23.7056-35.2768-136.8064 97.7152 23.7056 35.2768a10.7008 10.7008 0 0 0 15.0784 2.7648zM248.704 106.112l-0.7936 133.1712 122.0608-87.1168-121.2672-46.0544zM454.4 103.4496h344.0128v-51.2H454.4z"  horiz-adv-x="1024" />

    
    <glyph glyph-name="wenjian" unicode="&#59092;" d="M601.216 706.4064a42.88 42.88 0 0 1-29.824 11.9552l-268.1856 0.5632s-64-4.1472-64-62.6432v-542.7712s2.8416-62.6432 64-62.6432h417.5616s63.9744 2.944 63.9744 62.6432V512.0768c0 11.1872-4.6592 21.9136-12.8256 29.824m-178.7904 89.5744l111.8464-99.072H614.4s-21.376 0.9472-21.376 20.864c0.1024 19.968 0.1024 78.208 0.1024 78.208z m140.416-507.1616c0-20.992-21.3504-20.864-21.3504-20.864H311.7824c-19.9424 0-21.3504 20.864-21.3504 20.864V646.8352c0 19.456 21.3504 20.8896 21.3504 20.8896l229.8624-0.128v-123.776c0-57.9328 64-62.6944 64-62.6944h127.5392l0.3584-356.8128zM397.3888 386.5344h230.2208c11.7504 0 21.3504 11.4944 21.3504 25.5744 0 14.1056-9.6 25.6256-21.3504 25.6256h-230.2208c-11.776 0-21.376-11.52-21.376-25.6256 0-14.208 9.6-25.5744 21.376-25.5744zM397.3888 176.128h230.2208c11.7504 0 21.3504 11.4688 21.3504 25.5744s-9.6 25.6256-21.3504 25.6256h-230.2208c-11.776 0-21.376-11.52-21.376-25.6256 0-14.208 9.6-25.5744 21.376-25.5744zM397.3888 281.3184h230.2208c11.7504 0 21.3504 11.4688 21.3504 25.5744s-9.6 25.6256-21.3504 25.6256h-230.2208c-11.776 0-21.376-11.52-21.376-25.6256 0-14.1824 9.6-25.5744 21.376-25.5744z"  horiz-adv-x="1024" />

    
    <glyph glyph-name="shoucang" unicode="&#59093;" d="M676.1984 65.3568a67.9936 67.9936 0 0 0-29.4912 7.552l-138.624 69.2992-139.4432-69.1968a62.976 62.976 0 0 0-66.4832 5.0432 64.7168 64.7168 0 0 0-24.9088 63.0016l28.5184 147.9424-109.3376 101.888a67.2 67.2 0 0 0-16.9984 65.1008l0.2048 0.7424a63.36 63.36 0 0 0 51.584 43.8016l151.8848 27.6224 68.1984 138.4704a64.384 64.384 0 0 0 56.7808 36.0192 62.72 62.72 0 0 0 57.0112-36.4032l67.968-138.0352 151.936-26.4704a61.952 61.952 0 0 0 50.6112-44.288 64.0512 64.0512 0 0 0-15.7952-65.3312l-0.4096-0.384-109.056-102.6816 27.5968-148.1472a63.744 63.744 0 0 0-24.6272-62.592c-10.5216-8.448-23.6544-13.056-37.1712-12.9536h0.0512z m-168.064 128.9984l145.5872-72.8064a30.72 30.72 0 0 1 12.5696-3.5072 21.248 21.248 0 0 1 13.5424 4.5568l0.64 0.5376c8.1152 5.888 12.2368 15.8464 10.496 25.7536l-29.2864 157.7472 115.8912 109.1584c7.04 7.0912 9.5232 17.5616 6.3744 27.0592l-0.3328 0.9984a23.8592 23.8592 0 0 1-19.8144 17.2544h-0.6656l-160.384 28.032-72.1408 146.5856a25.2928 25.2928 0 0 1-22.6304 14.1568 26.4704 26.4704 0 0 1-23.0144-15.0272l-71.7312-145.5872L252.16 460.032a25.2416 25.2416 0 0 1-20.9152-17.8688c-2.3552-9.7792 0.384-20.0704 7.296-27.392l116.0192-108.0832-30.4384-157.9008c-1.536-9.9072 2.5088-19.712 10.496-25.7024 7.7312-5.504 17.92-6.1952 26.368-1.8432l0.512 0.3584 146.6368 72.7552z"  horiz-adv-x="1024" />

    
    <glyph glyph-name="xitong" unicode="&#59094;" d="M507.52 539.136a135.9104 135.9104 0 1 1 135.8848-135.8848v0.0256a136.1152 136.1152 0 0 1-135.8848 135.8592z m83.7632-135.8592a83.7376 83.7376 0 1 0-167.5008 0.128 83.7376 83.7376 0 0 0 167.5008-0.128zM834.4832 459.7504a25.9584 25.9584 0 0 1-27.1104 20.6336h-2.5856a71.808 71.808 0 0 0-60.416 110.6432c0.896 1.3824 1.664 2.816 2.3808 4.3008 4.096 9.9328 1.7408 21.3504-5.9392 28.8512l-4.5056 4.3776a334.3104 334.3104 0 0 1-129.8688 74.3424 25.1392 25.1392 0 0 1-16.768-0.3072 26.4192 26.4192 0 0 1-12.7232-9.8816h-0.1536l-1.4848-3.1232c0-0.2048-0.2048-0.4352-0.3072-0.6656a72.0384 72.0384 0 0 0-64.8192-40.9088 72.3712 72.3712 0 0 0-64.9216 40.8576 25.7536 25.7536 0 0 1-22.1952 15.232 25.2928 25.2928 0 0 1-9.472-1.2288 334.2848 334.2848 0 0 1-135.2192-79.7184 26.2656 26.2656 0 0 1-1.6896-31.872 71.8336 71.8336 0 0 0-60.0832-111.0784h-3.84a26.2144 26.2144 0 0 1-27.2128-20.6592A339.456 339.456 0 0 1 177.024 384c0-25.5232 2.9184-50.944 8.7296-75.776 1.1264-5.376 3.968-10.24 8.064-13.952a26.24 26.24 0 0 1 19.2-6.5536h3.712a71.8336 71.8336 0 0 0 60.0832-111.0784 26.112 26.112 0 0 1 3.8656-34.0224 333.7984 333.7984 0 0 1 135.2704-78.1568 26.24 26.24 0 0 1 29.4656 14.592 71.808 71.808 0 0 0 129.5872 0.0512 26.1376 26.1376 0 0 1 31.3856-14.1056 333.9264 333.9264 0 0 1 134.2208 78.5152 25.4464 25.4464 0 0 1 8.2944 18.5856 26.368 26.368 0 0 1-4.4544 15.0272 71.8336 71.8336 0 0 0 60.4416 110.7712h0.5376a13.6704 13.6704 0 0 0 2.048 0 25.984 25.984 0 0 1 27.0848 20.5056v0.1536a336.4352 336.4352 0 0 1 0 151.3472l-0.0768-0.1536z m-153.4208-243.6352a125.184 125.184 0 0 1 9.3952-47.4368 282.624 282.624 0 0 0-80.3584-47.232 124.032 124.032 0 0 1-166.656 31.4368 124.9792 124.9792 0 0 1-33.4592-31.4368 282.0864 282.0864 0 0 0-79.3344 46.4128 124.1088 124.1088 0 0 1 9.7792 48.256 124.1088 124.1088 0 0 1-107.7504 122.8032 283.4432 283.4432 0 0 0 0 90.4192 123.8272 123.8272 0 0 1 97.9712 171.0848 284.672 284.672 0 0 0 79.3344 46.4128 123.904 123.904 0 0 1 200.1152 0.1024 281.9584 281.9584 0 0 0 80.3584-47.2064 123.904 123.904 0 0 1 97.024-169.984c2.432-14.976 3.6608-30.1568 3.6352-45.3632a292.7104 292.7104 0 0 0-3.6352-45.3632 124.2368 124.2368 0 0 1-106.4448-122.7008l0.0256-0.2048z"  horiz-adv-x="1024" />

    
    <glyph glyph-name="icon-test" unicode="&#59315;" d="M819.2 505.536a32 32 0 0 0-32 32V652.032a8 8 0 0 1-7.936 8H244.8a8.064 8.064 0 0 1-8.064-8v-114.496a32 32 0 0 0-64 0V652.032c0 39.68 32.32 72 72.064 72h534.464c39.68 0 71.936-32.32 71.936-72v-114.496a32 32 0 0 0-32-32zM779.264 43.904H244.8a72.128 72.128 0 0 0-72.064 72V230.4a32 32 0 0 0 64 0v-114.496c0-4.416 3.648-8 8.064-8h534.464a8 8 0 0 1 7.936 8V230.4a32 32 0 0 0 64 0v-114.496c0-39.744-32.256-72-71.936-72zM313.344 246.528a32 32 0 0 0-32 32V431.168l-15.552-9.856a32 32 0 1 0-34.368 53.952l64.704 41.216a32 32 0 0 0 49.152-26.944v-210.944a31.872 31.872 0 0 0-31.936-32.064zM488.448 246.528c-57.6 0-102.656 60.352-102.656 137.472s45.12 137.472 102.656 137.472c57.536 0 102.656-60.416 102.656-137.472s-45.12-137.472-102.656-137.472z m0 210.944c-17.856 0-38.72-32.128-38.72-73.472s20.8-73.472 38.656-73.472 38.72 32.064 38.72 73.472-20.8 73.472-38.656 73.472zM742.016 294.016H616.512a32 32 0 0 0-25.408 51.456l125.504 163.456c8.384 10.816 22.784 15.168 35.712 10.816a32 32 0 0 0 21.696-30.336v-163.456a32 32 0 0 0-32-31.936z m-60.608 64h28.544v37.248l-28.544-37.248zM742.016 246.528a32 32 0 0 0-32 32v47.488a32 32 0 0 0 32 32h33.344a32 32 0 0 0 0-64h-1.344v-15.488a32 32 0 0 0-32-32z"  horiz-adv-x="1024" />

    
    <glyph glyph-name="BCPmuchabaohu" unicode="&#59316;" d="M774.4 38.4H243.2c-38.4 0-70.4 32-70.4 70.4V652.8c0 38.4 32 70.4 70.4 70.4h537.6c38.4 0 70.4-32 70.4-70.4v-537.6c0-38.4-32-76.8-76.8-76.8zM243.2 659.2c-6.4 0-6.4-6.4-6.4-6.4v-537.6c0-6.4 6.4-6.4 6.4-6.4h537.6c6.4 0 6.4 6.4 6.4 6.4V652.8c0 6.4-6.4 6.4-6.4 6.4H243.2zM556.8 217.6H409.6c-19.2 0-32 12.8-32 32V518.4c0 19.2 12.8 32 32 32h147.2c44.8 0 83.2-44.8 83.2-96 0-25.6-6.4-44.8-19.2-64 19.2-19.2 32-51.2 32-76.8-6.4-51.2-51.2-96-96-96z m-115.2 64h115.2c12.8 0 25.6 12.8 25.6 32s-19.2 38.4-32 38.4c-19.2 0-32 12.8-32 32s12.8 32 32 32c6.4 0 19.2 19.2 19.2 38.4s-12.8 32-19.2 32H441.6v-204.8zM550.4 352H409.6c-19.2 0-32 12.8-32 32s12.8 32 32 32h147.2c19.2 0 32-12.8 32-32s-19.2-32-38.4-32z"  horiz-adv-x="1024" />

    
    <glyph glyph-name="EMS" unicode="&#59317;" d="M331.392 556.736a32 32 0 0 0-32 32V742.4a32 32 0 0 0 64 0v-153.6a32 32 0 0 0-32-32.064zM304.128 533.632h-150.4a32 32 0 0 0 0 64h150.4a32 32 0 0 0 0-64zM304.128 174.528h-150.4a32 32 0 0 0 0 64h150.4a32 32 0 0 0 0-64zM331.392-8.064a32 32 0 0 0-32 32v151.872a32 32 0 0 0 64 0v-151.872a32 32 0 0 0-32-32zM690.432-6.464a32 32 0 0 0-32 32v150.272a32 32 0 0 0 64 0v-150.272a32 32 0 0 0-32-32zM870.272 174.528h-153.024a32 32 0 0 0 0 64h153.024a32 32 0 0 0 0-64zM690.432 556.736a32 32 0 0 0-32 32V742.528a32 32 0 0 0 64 0V588.8a32 32 0 0 0-32-32.064zM870.272 533.632h-153.024a32 32 0 0 0 0 64h153.024a32 32 0 0 0 0-64zM452.288 560.768a32 32 0 0 0-32 32v149.76a32 32 0 0 0 64 0v-149.76c0-17.728-14.272-32-32-32zM571.648 560.768a32 32 0 0 0-32 32v149.76a32 32 0 0 0 64 0v-149.76a32 32 0 0 0-32-32zM304.128 411.84h-150.4a32 32 0 0 0 0 64h150.4a32 32 0 0 0 0-64zM304.128 292.352h-150.4a32 32 0 0 0 0 64h150.4a32 32 0 0 0 0-64zM452.288-6.528a32 32 0 0 0-32 32v149.632a32 32 0 0 0 64 0v-149.632a32 32 0 0 0-32-32zM572.352-8.064a32 32 0 0 0-32 32v151.168a32 32 0 0 0 64 0v-151.168a32 32 0 0 0-32-32zM870.272 411.84H725.76a32 32 0 0 0 0 64h144.512a32 32 0 0 0 0-64zM870.272 292.352H725.76a32 32 0 0 0 0 64h144.512a32 32 0 0 0 0-64zM677.12 147.008H346.368c-39.68 0-71.936 32.32-71.936 72V549.632c0 39.68 32.256 72 71.936 72h330.752c39.68 0 71.936-32.32 71.936-72v-330.624c0-39.68-32.256-72-71.936-72zM346.368 557.632a8 8 0 0 1-7.936-8v-330.624c0-4.416 3.584-8 7.936-8h330.752a8 8 0 0 1 7.936 8V549.632a8 8 0 0 1-7.936 8H346.368z"  horiz-adv-x="1024" />

    
    <glyph glyph-name="DCDC" unicode="&#59318;" d="M779.136 44.736h-534.4c-39.68 0-71.936 32.32-71.936 72V651.2c0 39.68 32.32 72 71.936 72h534.4c39.744 0 72.128-32.32 72.128-72v-534.464c0-39.68-32.384-72-72.128-72zM244.736 659.2a8 8 0 0 1-7.936-8v-534.464c0-4.416 3.584-8 7.936-8h534.4a8.256 8.256 0 0 1 8.128 8V651.2a8.192 8.192 0 0 1-8.128 8h-534.4zM216.512 56.512a32 32 0 0 0-22.656 54.592l590.912 590.976a32 32 0 0 0 45.248-45.248l-590.912-590.976a31.872 31.872 0 0 0-22.592-9.344zM575.488 198.4H512a32 32 0 0 0 0 64h63.488a32 32 0 0 0 0-64zM716.8 198.4h-68.288a32 32 0 0 0 0 64H716.8a32 32 0 0 0 0-64zM370.624 505.6h-63.36a32 32 0 0 0 0 64h63.36a32 32 0 0 0 0-64zM512 505.6H443.776a32 32 0 0 0 0 64H512a32 32 0 0 0 0-64z"  horiz-adv-x="1024" />

    
    <glyph glyph-name="notificationtishixinxi" unicode="&#59319;" d="M761.6 102.4c-19.2 0-32 12.8-32 32V486.4C729.6 608 633.6 704 512 704S294.4 608 294.4 486.4v-345.6c0-19.2-12.8-32-32-32s-32 12.8-32 32V486.4C230.4 640 358.4 768 512 768c153.6 0 281.6-128 281.6-281.6v-345.6c0-25.6-12.8-38.4-32-38.4zM512-44.8c-19.2 0-32 12.8-32 32v102.4c0 19.2 12.8 32 32 32s32-12.8 32-32v-102.4c0-19.2-12.8-32-32-32zM512 697.6c-19.2 0-32 12.8-32 32v51.2c0 19.2 12.8 32 32 32s32-12.8 32-32v-51.2c0-12.8-12.8-32-32-32zM864 102.4h-704c-19.2 0-32 12.8-32 32s12.8 32 32 32h704c19.2 0 32-12.8 32-32s-12.8-32-32-32z"  horiz-adv-x="1024" />

    
    <glyph glyph-name="GPRS" unicode="&#59320;" d="M780.8 44.8H243.2c-38.4 0-70.4 32-70.4 70.4V652.8c0 38.4 32 70.4 70.4 70.4h537.6c38.4 0 70.4-32 70.4-70.4v-537.6c0-38.4-32-70.4-70.4-70.4zM243.2 659.2c-6.4 0-6.4-6.4-6.4-6.4v-537.6c0-6.4 6.4-6.4 6.4-6.4h537.6c6.4 0 6.4 6.4 6.4 6.4V652.8c0 6.4-6.4 6.4-6.4 6.4H243.2zM659.2 204.8c-6.4 0-19.2 0-25.6 6.4-12.8 12.8-12.8 32 0 44.8 70.4 70.4 70.4 179.2 0 243.2-12.8 12.8-12.8 32 0 44.8 12.8 12.8 32 12.8 44.8 0 89.6-89.6 89.6-243.2 0-332.8-6.4 0-12.8-6.4-19.2-6.4zM364.8 204.8c-6.4 0-19.2 0-25.6 6.4-89.6 89.6-89.6 243.2 0 332.8 12.8 12.8 32 12.8 44.8 0 12.8-12.8 12.8-32 0-44.8-64-64-64-172.8 6.4-236.8 12.8-12.8 12.8-32 0-44.8-6.4-6.4-12.8-12.8-25.6-12.8zM601.6 262.4c-6.4 0-19.2 0-25.6 6.4-12.8 12.8-12.8 38.4 0 51.2 38.4 32 38.4 96 0 128-12.8 12.8-12.8 32 0 44.8s32 12.8 44.8 0c64-64 64-160 0-224-6.4 0-12.8-6.4-19.2-6.4zM422.4 262.4c-6.4 0-19.2 0-25.6 6.4-64 64-64 160 0 224 12.8 12.8 32 12.8 44.8 0s19.2-32 6.4-44.8c-38.4-32-38.4-96 0-128 12.8-12.8 12.8-32 0-44.8-6.4-6.4-19.2-12.8-25.6-12.8zM512 102.4c-19.2 0-32 12.8-32 32V364.8c0 19.2 12.8 32 32 32s32-12.8 32-32v-224c0-19.2-12.8-38.4-32-38.4zM512 332.8c-32 0-51.2 19.2-51.2 51.2s25.6 51.2 51.2 51.2 51.2-25.6 51.2-51.2c0-32-19.2-51.2-51.2-51.2z m0 64c-6.4 0-12.8-6.4-12.8-12.8 0-12.8 19.2-12.8 19.2 0 6.4 6.4 0 12.8-6.4 12.8z"  horiz-adv-x="1024" />

    
    <glyph glyph-name="loading" unicode="&#59321;" d="M512-57.6c-19.2 0-32 12.8-32 32v102.4c0 19.2 12.8 32 32 32s32-12.8 32-32v-102.4c0-19.2-12.8-32-32-32zM512 659.2c-19.2 0-32 12.8-32 32V793.6c0 19.2 12.8 32 32 32s32-12.8 32-32v-102.4c0-19.2-12.8-32-32-32zM294.4 569.6c-6.4 0-19.2 0-25.6 6.4L198.4 652.8c-12.8 12.8-12.8 32 0 44.8s32 12.8 44.8 0l70.4-70.4c12.8-12.8 12.8-32 0-44.8 0-12.8-12.8-12.8-19.2-12.8zM204.8 352H102.4c-19.2 0-32 12.8-32 32s12.8 32 32 32h102.4c19.2 0 32-12.8 32-32s-12.8-32-32-32zM224 64c-6.4 0-19.2 0-25.6 6.4-12.8 12.8-12.8 32 0 44.8L268.8 192c12.8 12.8 32 12.8 44.8 0s12.8-32 0-44.8l-70.4-70.4c-6.4-12.8-12.8-12.8-19.2-12.8zM800 64c-6.4 0-19.2 0-25.6 6.4L704 147.2c-12.8 12.8-12.8 32 0 44.8s32 12.8 44.8 0l70.4-70.4c12.8-12.8 12.8-32 0-44.8 0-12.8-12.8-12.8-19.2-12.8zM921.6 352h-102.4c-19.2 0-32 12.8-32 32s12.8 32 32 32h102.4c19.2 0 32-12.8 32-32s-12.8-32-32-32zM729.6 569.6c-6.4 0-19.2 0-25.6 6.4-12.8 12.8-12.8 32 0 44.8l70.4 70.4c12.8 12.8 32 12.8 44.8 0s12.8-32 0-44.8L748.8 576c-6.4-6.4-12.8-6.4-19.2-6.4zM512 659.2c-19.2 0-32 12.8-32 32V793.6c0 19.2 12.8 32 32 32s32-12.8 32-32v-102.4c0-19.2-12.8-32-32-32zM512 147.2C384 147.2 275.2 256 275.2 384S377.6 620.8 512 620.8c128 0 236.8-108.8 236.8-236.8S640 147.2 512 147.2z m0 409.6C416 556.8 339.2 480 339.2 384c0-96 76.8-172.8 172.8-172.8s172.8 76.8 172.8 172.8c0 96-76.8 172.8-172.8 172.8z"  horiz-adv-x="1024" />

    
    <glyph glyph-name="SVG" unicode="&#59322;" d="M780.8 38.39999999999998H243.2c-38.4 0-70.4 32-70.4 70.528V646.4c0 38.4 32 70.4 70.4 70.4h537.6c38.4 0 70.4-32 70.4-70.4v-537.6c0-38.4-32-70.4-70.4-70.4zM243.2 652.8c-6.4 0-6.4-6.4-6.4-6.4v-537.6c0-6.4 6.4-6.4 6.4-6.4h537.6c6.4 0 6.4 6.528 6.4 6.528V646.4c0 6.4-6.4 6.4-6.4 6.4H243.2zM414.592 374.01599999999996c-1.088 1.984-1.792 4.224-3.136 6.08l-1.024 0.96-0.704 1.088a75.84 75.84 0 0 1-9.728 8.96 29.44 29.44 0 0 1 14.656 25.472c0 37.248-34.624 67.52-77.12 67.52-42.56 0-77.184-30.272-77.184-67.52 0-15.744 7.04-30.656 19.136-40.704a29.12 29.12 0 0 1-22.656-28.096c0-37.952 36.288-67.584 82.624-67.584s82.624 29.632 82.624 67.584a54.912 54.912 0 0 1-6.144 24c-0.32 0.704-0.96 1.408-1.344 2.24z m-77.056 51.072c11.648 0 18.048-6.4 18.048-8.448 0-1.536 0.064-3.136 0.32-4.608a386.24 386.24 0 0 1-25.344 6.4l-8.32 1.92a24.64 24.64 0 0 0 15.296 4.736z m-21.632-77.12a28.288 28.288 0 0 1-4.352 14.272l5.824-1.408c13.568-3.136 32.384-7.744 43.136-14.592-2.88-2.944-9.408-6.976-21.12-6.976-13.952 0-22.272 6.08-23.488 8.704z m253.12 134.848a29.568 29.568 0 0 1-36.928-19.648l-24.832-81.6-26.816 82.176a29.568 29.568 0 0 1-56.192-18.368l44.736-136.896c5.376-16.896 21.12-28.352 38.848-28.352l0.448 0.064a40.896 40.896 0 0 1 38.72 29.184l41.6 136.64a29.568 29.568 0 0 1-19.52 36.8h-0.064z m189.696-54.656c-16 34.496-47.872 56-83.392 56-51.52 0-93.376-45.76-93.376-102.016 0-22.784 7.872-44.096 20.544-61.888 0.384-0.768 0.384-1.536 0.832-2.304s1.344-1.408 1.792-2.176c0.256-0.256 0.32-0.576 0.512-0.768 0.32-0.512 0.384-1.152 0.896-1.472h0.128v-0.128l0.256-0.256c0.512-0.512 1.088-0.768 1.472-1.28 6.144-8.064 14.272-14.976 24.768-20.224 0.448-0.256 0.704-0.768 1.216-1.024h0.064v-0.064c0.256-0.192 0.64-0.192 0.896-0.32 0.32-0.128 0.576-0.384 0.832-0.64h0.256c1.024-0.32 2.24-0.576 3.392-1.088 9.92-4.48 20.864-7.104 33.536-7.616 0.896-0.128 1.536-0.384 2.368-0.384l0.512-0.128 1.6-0.064h0.256l5.376-0.128c19.968 0 39.04 4.608 54.016 12.928l0.256 0.064c3.84 2.048 7.36 4.416 10.752 7.168a29.888 29.888 0 0 1 11.136 22.976v51.008a29.12 29.12 0 0 1-8 19.904 29.248 29.248 0 0 1 7.104 33.92z m-83.2-3.072c12.032 0 22.976-8.192 29.248-21.184h-21.248a29.504 29.504 0 1 1 0.064-59.072h17.024v-2.752a87.552 87.552 0 0 0-20.352-2.752l-0.256-0.064-0.32 0.128a59.008 59.008 0 0 0-18.176 4.032 30.976 30.976 0 0 0-9.472 7.808l-0.128 0.064a48.384 48.384 0 0 0-10.624 30.784c0 23.68 15.232 43.008 34.24 43.008z"  horiz-adv-x="1024" />

    
    <glyph glyph-name="WIFI" unicode="&#59323;" d="M409.6 204.8c-6.4 0-19.2 0-25.6 6.4-12.8 12.8-12.8 32 0 44.8 64 64 185.6 64 249.6 0 12.8-12.8 12.8-32 0-44.8s-32-12.8-44.8 0c-44.8 44.8-115.2 44.8-160 0-6.4-6.4-12.8-6.4-19.2-6.4zM768 345.6c-6.4 0-19.2 0-25.6 6.4-128 128-339.2 128-467.2 0-12.8-12.8-32-12.8-44.8 0s-12.8 32 0 44.8c153.6 153.6 403.2 153.6 563.2 0 12.8-12.8 12.8-32 0-44.8-6.4-6.4-19.2-6.4-25.6-6.4zM921.6 486.4c-6.4 0-19.2 0-25.6 6.4C684.8 704 332.8 704 121.6 492.8c-12.8-12.8-32-12.8-44.8 0s-12.8 38.4 0 51.2c236.8 236.8 627.2 236.8 864 0 12.8-12.8 12.8-32 0-44.8 0-6.4-12.8-12.8-19.2-12.8zM512-6.4c-44.8 0-76.8 32-76.8 76.8s32 76.8 76.8 76.8 76.8-32 76.8-76.8-38.4-76.8-76.8-76.8z m0 83.2c-6.4 0-12.8-6.4-12.8-12.8 0-12.8 25.6-12.8 25.6 0 0 6.4-6.4 12.8-12.8 12.8z"  horiz-adv-x="1024" />

    
    <glyph glyph-name="UF" unicode="&#59324;" d="M780.8 44.8H243.2c-38.4 0-70.4 32-70.4 70.4V652.8c0 38.4 32 70.4 70.4 70.4h531.2c38.4 0 70.4-32 70.4-70.4v-537.6c6.4-38.4-25.6-70.4-64-70.4zM243.2 659.2c-6.4 0-6.4-6.4-6.4-6.4v-537.6c0-6.4 6.4-6.4 6.4-6.4h531.2c6.4 0 6.4 6.4 6.4 6.4V652.8c0 6.4-6.4 6.4-6.4 6.4H243.2zM396.8 243.2c-64 0-115.2 51.2-115.2 115.2 0 19.2 12.8 32 32 32s32-12.8 32-32c0-32 25.6-51.2 51.2-51.2s51.2 25.6 51.2 51.2c0 19.2 12.8 32 32 32s32-12.8 32-32c6.4-64-51.2-115.2-115.2-115.2zM313.6 326.4c-19.2 0-32 12.8-32 32V492.8c0 19.2 12.8 32 32 32s32-12.8 32-32v-134.4c0-12.8-12.8-32-32-32zM486.4 326.4c-19.2 0-32 12.8-32 32V492.8c0 19.2 12.8 32 32 32s32-12.8 32-32v-134.4c0-12.8-19.2-32-32-32zM697.6 352h-128c-19.2 0-32 12.8-32 32V492.8c0 19.2 12.8 32 32 32h140.8c19.2 0 32-12.8 32-32s-12.8-32-32-32H601.6v-44.8h96c19.2 0 32-12.8 32-32s-12.8-32-32-32zM569.6 243.2c-19.2 0-32 12.8-32 32V384c0 19.2 12.8 32 32 32s32-12.8 32-32v-108.8c0-19.2-19.2-32-32-32z"  horiz-adv-x="1024" />

    
    <glyph glyph-name="WI-FIpeizhi" unicode="&#59325;" d="M819.2 300.8h-512c-19.2 0-32 12.8-32 32s12.8 32 32 32h512c19.2 0 32-12.8 32-32s-12.8-32-32-32zM332.8 121.6c-32 0-57.6 25.6-57.6 57.6s25.6 57.6 57.6 57.6 51.2-25.6 51.2-57.6-25.6-57.6-51.2-57.6z m0 64c-6.4 0-6.4-6.4-6.4-6.4 0-6.4 12.8-6.4 12.8 0s-6.4 6.4-6.4 6.4zM556.8 121.6c-32 0-57.6 25.6-57.6 57.6s25.6 57.6 57.6 57.6 57.6-25.6 57.6-57.6-25.6-57.6-57.6-57.6z m0 64c-6.4 0-6.4-6.4-6.4-6.4 0-6.4 12.8-6.4 12.8 0 6.4 6.4 0 6.4-6.4 6.4zM793.6 121.6c-32 0-57.6 25.6-57.6 57.6s25.6 57.6 57.6 57.6 57.6-25.6 57.6-57.6c-6.4-32-25.6-57.6-57.6-57.6z m0 64c-6.4 0-6.4-6.4-6.4-6.4 0-6.4 12.8-6.4 12.8 0s-6.4 6.4-6.4 6.4zM812.8-6.4h-512c-102.4 0-185.6 83.2-185.6 185.6 0 102.4 83.2 185.6 185.6 185.6 19.2 0 32-12.8 32-32s-6.4-32-25.6-32c-64 0-121.6-57.6-121.6-121.6s57.6-121.6 121.6-121.6h512c19.2 0 32-12.8 32-32s-19.2-32-38.4-32zM800 640c-6.4 0-19.2 0-25.6 6.4C704 723.2 614.4 761.6 512 761.6c-102.4 0-198.4-38.4-268.8-108.8-12.8-12.8-32-12.8-44.8 0s-12.8 32 0 44.8c83.2 83.2 192 128 313.6 128s230.4-44.8 313.6-128c12.8-12.8 12.8-32 0-44.8-6.4-6.4-19.2-12.8-25.6-12.8zM441.6 422.4c-6.4 0-19.2 0-25.6 6.4-12.8 19.2-12.8 38.4 0 51.2 51.2 51.2 140.8 51.2 192 0 12.8-12.8 12.8-32 0-44.8s-32-12.8-44.8 0c-25.6 25.6-70.4 25.6-102.4 0-6.4-6.4-12.8-12.8-19.2-12.8zM691.2 531.2c-6.4 0-19.2 0-25.6 6.4-83.2 83.2-230.4 83.2-320 0-6.4-6.4-25.6-6.4-38.4 6.4s-12.8 32 0 44.8c51.2 51.2 128 83.2 204.8 83.2 76.8 0 147.2-32 204.8-83.2 12.8-12.8 12.8-32 0-44.8-6.4-6.4-12.8-12.8-25.6-12.8z"  horiz-adv-x="1024" />

    
    <glyph glyph-name="banben" unicode="&#59326;" d="M153.792 96a32 32 0 0 0-32 32V640a32 32 0 0 0 64 0v-512a32 32 0 0 0-32-32zM779.264-6.528H398.592a72.128 72.128 0 0 0-72.064 72v637.44c0 39.68 32.32 72 72.064 72h380.672c39.68 0 72-32.32 72-72v-637.376c0-39.744-32.32-72.064-72-72.064zM398.592 710.912a8.064 8.064 0 0 1-8.064-8v-637.376c0-4.416 3.648-8 8.064-8h380.672a8 8 0 0 1 8 8V702.912a8 8 0 0 1-8 8H398.592zM358.528 44.736h-62.4c-39.68 0-72 32.32-72 72v534.4c0 39.68 32.32 72 72 72h62.4a32 32 0 0 0 0-64h-62.4a7.936 7.936 0 0 1-8-8v-534.4c0-4.48 3.52-8 8-8h62.4a32 32 0 0 0 0-64z"  horiz-adv-x="1024" />

    
    <glyph glyph-name="baohu" unicode="&#59327;" d="M461.632 252.736a32.128 32.128 0 0 0-22.656 9.344L361.344 339.776a32 32 0 0 0 45.248 45.248l54.976-54.976 181.312 181.312a32 32 0 0 0 45.248-45.248L484.224 262.144a31.68 31.68 0 0 0-22.592-9.408zM512-55.296a32.064 32.064 0 0 0-14.464 3.456c-316.544 160-322.624 428.224-322.752 439.552V591.104A103.04 103.04 0 0 0 245.12 688.896l211.456 70.912a174.528 174.528 0 0 0 110.784 0l211.52-70.912a103.104 103.104 0 0 0 70.336-97.792v-203.136c-0.128-11.648-6.208-279.808-322.752-439.872a32 32 0 0 0-14.464-3.392zM512 704.896c-11.968 0-23.744-1.92-35.072-5.696L265.472 628.224a39.04 39.04 0 0 1-26.688-37.12v-203.136c0.192-9.216 6.976-232.896 273.216-375.232 267.968 143.36 273.216 373.184 273.216 375.552V591.104a39.168 39.168 0 0 1-26.688 37.12L547.072 699.136A110.72 110.72 0 0 1 512 704.896z"  horiz-adv-x="1024" />

    
    <glyph glyph-name="baocun" unicode="&#59328;" d="M779.456 43.904h-534.4c-39.68 0-72 32.32-72 72V652.096c0 39.68 32.32 72 72 72H667.072a32 32 0 0 0 19.2-7.616h0.064l0.064-0.064 0.064-0.064c0.64-0.512 1.216-1.024 1.728-1.6l142.272-142.784c13.312-13.312 20.928-31.872 20.928-50.752v-405.248a72 72 0 0 0-71.936-72.064z m-534.4 616.192a8 8 0 0 1-8-8v-536.192c0-4.416 3.584-8 8-8h534.4a8 8 0 0 1 8 8V521.152L697.6 613.376v-33.344c0-39.68-32.32-72-72-72H398.464c-39.68 0-72 32.32-72 72v80H245.056z m145.408 0v-80c0-4.416 3.584-8 8-8h227.136a8 8 0 0 1 8 8v80H390.464zM716.928 44.8a32 32 0 0 0-32 32v163.264a8 8 0 0 1-8 8H348.928a8.064 8.064 0 0 1-8.128-8V76.8a32 32 0 0 0-64 0v163.264c0 39.68 32.32 72 72.128 72h328c39.68 0 72-32.32 72-72V76.8a32 32 0 0 0-32-32z"  horiz-adv-x="1024" />

    
    <glyph glyph-name="anzhuangshang" unicode="&#59329;" d="M512 302.208A236.992 236.992 0 0 0 275.264 538.88 236.928 236.928 0 0 0 512 775.488a236.864 236.864 0 0 0 236.608-236.608A236.864 236.864 0 0 0 512 302.208z m0 409.28A172.864 172.864 0 0 1 339.264 538.88 172.928 172.928 0 0 1 512 366.208a172.8 172.8 0 0 1 172.608 172.672A172.8 172.8 0 0 1 512 711.488zM158.08 46.528a32.064 32.064 0 0 0-27.648 48.064A442.496 442.496 0 0 0 512 314.496c18.624 0 37.056-1.216 55.104-3.52a32 32 0 0 0 27.776-35.712 32.448 32.448 0 0 0-35.776-27.776A381.44 381.44 0 0 1 512 250.496a378.304 378.304 0 0 1-326.208-188.032 31.744 31.744 0 0 0-27.712-15.936zM562.752-56.448c-25.792 0-50.112 10.048-68.416 28.224a97.088 97.088 0 0 0-0.064 136.96l137.152 137.152a162.432 162.432 0 0 0 45.696 137.856 163.072 163.072 0 0 0 156.736 41.792 32.192 32.192 0 0 0 14.272-53.568l-56.832-56.704 46.464-46.4 56.768 56.768a32.512 32.512 0 0 0 30.912 8.32 32.384 32.384 0 0 0 22.656-22.656 162.816 162.816 0 0 0-41.92-156.672 162.176 162.176 0 0 0-137.856-45.632L631.296-28.16a96.896 96.896 0 0 0-68.544-28.288z m171.136 404.8a98.432 98.432 0 0 1-36.864-104.64 32.064 32.064 0 0 0-8.32-30.912L539.52 63.488a32.96 32.96 0 0 1 0.064-46.464 34.112 34.112 0 0 1 46.528 0.128l149.056 149.184a32.384 32.384 0 0 0 30.848 8.32 98.752 98.752 0 0 1 104.512 36.544l-10.176-10.176a32 32 0 0 0-45.248 0l-91.776 91.648a32 32 0 0 0 0 45.312l10.56 10.368z"  horiz-adv-x="1024" />

    
    <glyph glyph-name="baobiaoguanli" unicode="&#59330;" d="M780.8 44.8H243.2c-38.4 0-70.4 32-70.4 70.4V652.8c0 38.4 32 70.4 70.4 70.4h531.2c38.4 0 70.4-32 70.4-70.4v-537.6c6.4-38.4-25.6-70.4-64-70.4zM243.2 659.2c-6.4 0-6.4-6.4-6.4-6.4v-537.6c0-6.4 6.4-6.4 6.4-6.4h531.2c6.4 0 6.4 6.4 6.4 6.4V652.8c0 6.4-6.4 6.4-6.4 6.4H243.2zM358.4 608c-19.2 0-32 12.8-32 32V742.4c0 19.2 12.8 32 32 32s32-12.8 32-32V640c0-19.2-12.8-32-32-32zM665.6 608c-19.2 0-32 12.8-32 32V742.4c0 19.2 12.8 32 32 32s32-12.8 32-32V640c0-19.2-12.8-32-32-32zM665.6 505.6H358.4c-19.2 0-32 12.8-32 32s12.8 32 32 32h307.2c19.2 0 32-12.8 32-32s-12.8-32-32-32zM665.6 352H358.4c-19.2 0-32 12.8-32 32s12.8 32 32 32h307.2c19.2 0 32-12.8 32-32s-12.8-32-32-32zM665.6 198.4H358.4c-19.2 0-32 12.8-32 32s12.8 32 32 32h307.2c19.2 0 32-12.8 32-32s-12.8-32-32-32z"  horiz-adv-x="1024" />

    
    <glyph glyph-name="anfangpeizhi" unicode="&#59331;" d="M204.8 608c-12.8 0-25.6 6.4-32 19.2-6.4 19.2 6.4 38.4 19.2 44.8l307.2 102.4c19.2 6.4 38.4-6.4 38.4-19.2 6.4-19.2-6.4-32-19.2-38.4L217.6 608h-12.8zM812.8 608h-12.8L499.2 710.4c-19.2 6.4-25.6 25.6-19.2 44.8 6.4 12.8 25.6 25.6 38.4 19.2l307.2-102.4c19.2-6.4 25.6-25.6 19.2-38.4-6.4-19.2-19.2-25.6-32-25.6zM512-57.6c-6.4 0-12.8 0-12.8 6.4-313.6 160-320 428.8-320 441.6V640c0 19.2 12.8 32 32 32s25.6-12.8 25.6-32v-256c0-6.4 6.4-243.2 288-384 12.8-6.4 19.2-25.6 12.8-44.8-6.4-6.4-12.8-12.8-25.6-12.8zM512-57.6c-12.8 0-25.6 6.4-32 19.2-6.4 12.8-6.4 32 12.8 44.8l19.2 6.4c12.8 6.4 32 0 44.8-12.8 6.4-12.8 0-32-12.8-44.8l-12.8-6.4c-6.4-6.4-12.8-6.4-19.2-6.4zM812.8 454.4c-19.2 0-32 12.8-32 32V640c0 19.2 12.8 32 32 32s32-12.8 32-32v-153.6c0-19.2-12.8-32-32-32zM691.2 134.4c-51.2 0-96 44.8-96 96s44.8 96 96 96 96-44.8 96-96-44.8-96-96-96z m0 128c-19.2 0-32-12.8-32-32s12.8-32 32-32 32 12.8 32 32-19.2 32-32 32zM620.8-19.2h-12.8c-38.4 12.8-64 32-96 57.6-6.4 6.4-6.4 25.6 0 38.4 6.4 12.8 6.4 32 0 51.2-6.4 12.8-25.6 25.6-38.4 25.6-12.8 0-25.6 12.8-32 25.6-6.4 19.2-6.4 38.4-6.4 57.6 0 19.2 0 38.4 6.4 57.6 0 12.8 12.8 25.6 32 25.6s32 12.8 38.4 25.6c6.4 6.4 6.4 25.6 0 38.4-6.4 12.8-6.4 32 6.4 38.4 25.6 25.6 57.6 44.8 96 57.6 12.8 6.4 32 0 38.4-12.8 19.2-25.6 64-25.6 83.2 0 6.4 12.8 25.6 19.2 38.4 12.8 25.6-6.4 44.8-19.2 64-32 12.8-6.4 19.2-12.8 25.6-25.6 12.8-12.8 12.8-25.6 6.4-38.4-6.4-12.8-6.4-32 0-51.2 6.4-12.8 25.6-19.2 38.4-19.2 12.8 0 25.6-12.8 32-25.6 6.4-19.2 6.4-38.4 6.4-57.6 0-19.2 0-38.4-6.4-57.6 0-12.8-12.8-25.6-32-25.6s-32-12.8-38.4-25.6c-6.4-12.8-6.4-32 0-51.2 6.4-12.8 6.4-25.6-6.4-38.4-25.6-25.6-57.6-44.8-96-57.6-12.8-6.4-32 0-38.4 12.8-6.4 12.8-25.6 25.6-38.4 25.6-19.2 0-32-6.4-38.4-25.6-12.8 0-19.2-6.4-32-6.4zM576 70.4c12.8-6.4 25.6-12.8 32-19.2 19.2 19.2 51.2 32 76.8 32 32 0 57.6-12.8 76.8-32 12.8 6.4 25.6 12.8 32 19.2-6.4 25.6 0 57.6 12.8 83.2s38.4 44.8 64 51.2v19.2 19.2c-25.6 6.4-51.2 25.6-64 51.2-12.8 25.6-19.2 57.6-12.8 83.2 0 0-6.4 0-6.4 6.4-6.4 6.4-19.2 12.8-32 19.2-44.8-38.4-115.2-38.4-153.6 0l-25.6-12.8c6.4-25.6 0-57.6-12.8-83.2s-38.4-44.8-64-51.2v-38.4c25.6-6.4 51.2-25.6 64-51.2 12.8-38.4 19.2-70.4 12.8-96z"  horiz-adv-x="1024" />

    
    <glyph glyph-name="beipinbeijiankucun" unicode="&#59332;" d="M512 44.8H102.4c-19.2 0-32 12.8-32 32s12.8 32 32 32H512c19.2 0 32-12.8 32-32s-12.8-32-32-32zM512 454.4H102.4c-19.2 0-32 12.8-32 32s12.8 32 32 32H512c19.2 0 32-12.8 32-32s-12.8-32-32-32zM512 659.2H102.4c-19.2 0-32 12.8-32 32s12.8 32 32 32H512c19.2 0 32-12.8 32-32s-12.8-32-32-32zM921.6 44.8h-102.4c-19.2 0-32 12.8-32 32s12.8 32 32 32h102.4c19.2 0 32-12.8 32-32s-12.8-32-32-32zM921.6 454.4h-102.4c-19.2 0-32 12.8-32 32s12.8 32 32 32h102.4c19.2 0 32-12.8 32-32s-12.8-32-32-32zM921.6 659.2h-102.4c-19.2 0-32 12.8-32 32s12.8 32 32 32h102.4c19.2 0 32-12.8 32-32s-12.8-32-32-32zM716.8 44.8H614.4c-19.2 0-32 12.8-32 32s12.8 32 32 32h102.4c19.2 0 32-12.8 32-32s-12.8-32-32-32zM716.8 454.4H614.4c-19.2 0-32 12.8-32 32s12.8 32 32 32h102.4c19.2 0 32-12.8 32-32s-12.8-32-32-32zM512 249.6H102.4c-19.2 0-32 12.8-32 32s12.8 32 32 32H512c19.2 0 32-12.8 32-32s-12.8-32-32-32zM921.6 249.6h-102.4c-19.2 0-32 12.8-32 32s12.8 32 32 32h102.4c19.2 0 32-12.8 32-32s-12.8-32-32-32zM716.8 249.6H614.4c-19.2 0-32 12.8-32 32s12.8 32 32 32h102.4c19.2 0 32-12.8 32-32s-12.8-32-32-32zM716.8 659.2H614.4c-19.2 0-32 12.8-32 32s12.8 32 32 32h102.4c19.2 0 32-12.8 32-32s-12.8-32-32-32z"  horiz-adv-x="1024" />

    
    <glyph glyph-name="baowenguanli" unicode="&#59333;" d="M576-12.8H243.2c-38.4 0-70.4 32-70.4 70.4V492.8c0 38.4 32 70.4 70.4 70.4H576c38.4 0 70.4-32 70.4-70.4v-435.2c0-38.4-32-70.4-70.4-70.4z m-332.8 512c-6.4 0-6.4-6.4-6.4-6.4v-435.2c0-6.4 6.4-6.4 6.4-6.4H576c6.4 0 6.4 6.4 6.4 6.4V492.8c0 6.4-6.4 6.4-6.4 6.4H243.2zM678.4 89.6c-19.2 0-32 12.8-32 32s12.8 32 32 32c6.4 0 6.4 6.4 6.4 6.4V595.2c0 6.4-6.4 6.4-6.4 6.4H345.6c-6.4 0-6.4-6.4-6.4-6.4 0-19.2-12.8-32-32-32s-32 12.8-32 32c0 38.4 32 70.4 70.4 70.4h332.8c38.4 0 70.4-32 70.4-70.4v-435.2c0-38.4-32-70.4-70.4-70.4zM780.8 192c-19.2 0-32 12.8-32 32s12.8 32 32 32c6.4 0 6.4 6.4 6.4 6.4V697.6c0 6.4-6.4 6.4-6.4 6.4H448s-6.4 0-6.4-6.4c0-19.2-12.8-32-32-32s-32 12.8-32 32C377.6 736 409.6 768 448 768h332.8c38.4 0 70.4-32 70.4-70.4v-435.2c0-38.4-32-70.4-70.4-70.4z"  horiz-adv-x="1024" />

    
    <glyph glyph-name="baocuntupian" unicode="&#59334;" d="M358.4 453.12a83.264 83.264 0 0 0 0 166.4c45.888 0 83.264-37.312 83.264-83.2s-37.376-83.2-83.264-83.2z m0 102.4a19.2 19.2 0 1 1 0.128-38.4 19.2 19.2 0 0 1-0.128 38.4zM409.6 43.968H243.648c-39.68 0-72 32.32-72 72V652.096c0 39.68 32.32 72 72 72h534.4c39.68 0 72-32.32 72-72V486.4a32 32 0 0 0-64 0V652.096a7.936 7.936 0 0 1-8 8h-534.4a7.936 7.936 0 0 1-8-8v-536.192c0-4.48 3.52-8 8-8H409.6a32 32 0 0 0 0-63.936zM692.608 47.232a32.128 32.128 0 0 0-22.656 9.344l-85.248 85.248a32 32 0 0 0 45.248 45.248l85.248-85.248a32 32 0 0 0-22.592-54.592zM692.608 47.232a32 32 0 0 0-22.656 54.592l85.376 85.248a32 32 0 0 0 45.248-45.248l-85.376-85.248a31.872 31.872 0 0 0-22.592-9.344zM692.608 47.232a32 32 0 0 0-32 32v254.72a32 32 0 0 0 64 0v-254.72a32 32 0 0 0-32-32zM690.752-56.768c-144.448 0-261.952 117.568-261.952 262.016s117.504 262.016 261.952 262.016c144.512 0 262.08-117.568 262.08-262.016s-117.568-262.016-262.08-262.016z m0 460.032c-109.12 0-197.952-88.832-197.952-198.016s88.832-198.016 197.952-198.016c109.184 0 198.08 88.832 198.08 198.016s-88.896 198.016-198.08 198.016zM203.648 198.464a32 32 0 0 0-19.2 57.6L389.184 409.6a31.936 31.936 0 0 0 41.856-3.008l20.48-20.608a32 32 0 1 0-45.312-45.12l-0.896 0.896-182.528-136.96a31.68 31.68 0 0 0-19.136-6.336z"  horiz-adv-x="1024" />

    
    <glyph glyph-name="beipinbeijian" unicode="&#59335;" d="M467.2-6.4H243.2c-38.4 0-70.4 32-70.4 70.4V601.6c0 38.4 32 70.4 70.4 70.4 19.2 0 32-12.8 32-32s-12.8-32-32-32c-6.4 0-6.4-6.4-6.4-6.4V64c0-6.4 6.4-6.4 6.4-6.4h217.6c19.2 0 32-12.8 32-32s-12.8-32-25.6-32zM819.2 454.4c-19.2 0-32 12.8-32 32V601.6c0 6.4-6.4 6.4-6.4 6.4-19.2 0-32 12.8-32 32s12.8 32 32 32c38.4 0 70.4-32 70.4-70.4v-115.2c0-19.2-12.8-32-32-32zM665.6 608H358.4c-19.2 0-32 12.8-32 32s12.8 32 32 32h307.2c19.2 0 32-12.8 32-32s-12.8-32-32-32zM665.6 454.4H358.4c-19.2 0-32 12.8-32 32s12.8 32 32 32h307.2c19.2 0 32-12.8 32-32s-12.8-32-32-32zM460.8 300.8H358.4c-19.2 0-32 12.8-32 32s12.8 32 32 32h102.4c19.2 0 32-12.8 32-32s-12.8-32-32-32zM409.6 147.2h-51.2c-19.2 0-32 12.8-32 32s12.8 32 32 32h51.2c19.2 0 32-12.8 32-32s-12.8-32-32-32zM614.4 608c-19.2 0-32 12.8-32 32V704c0 6.4-6.4 6.4-6.4 6.4H448s-6.4 0-6.4-6.4v-64c0-19.2-12.8-32-32-32s-32 12.8-32 32V704c0 38.4 32 70.4 70.4 70.4h128c38.4 0 70.4-32 70.4-70.4v-64c0-19.2-12.8-32-32-32zM691.2 108.8c-51.2 0-96 44.8-96 96s44.8 96 96 96 96-44.8 96-96-44.8-96-96-96z m0 134.4c-19.2 0-32-12.8-32-32s12.8-32 32-32 32 12.8 32 32-19.2 32-32 32zM755.2-44.8c-12.8 0-19.2 6.4-25.6 12.8-19.2 32-64 32-83.2 0-6.4-12.8-25.6-19.2-38.4-12.8-32 12.8-64 32-96 57.6-12.8 12.8-12.8 25.6-6.4 38.4 6.4 12.8 6.4 32 0 51.2-6.4 12.8-19.2 25.6-38.4 25.6-12.8 0-25.6 12.8-32 25.6-6.4 19.2-6.4 38.4-6.4 57.6s0 38.4 6.4 57.6c0 12.8 12.8 25.6 32 25.6s32 12.8 38.4 25.6c6.4 12.8 6.4 32 0 51.2 0 6.4 0 19.2 12.8 32 25.6 25.6 57.6 38.4 96 51.2 12.8 6.4 32 0 38.4-12.8 19.2-25.6 64-25.6 83.2 0 6.4 12.8 25.6 19.2 38.4 12.8 25.6-6.4 57.6-32 89.6-51.2 12.8-12.8 12.8-25.6 6.4-38.4-6.4-12.8-6.4-32 0-51.2 6.4-12.8 25.6-25.6 38.4-25.6 12.8 0 25.6-12.8 32-25.6 6.4-19.2 6.4-38.4 6.4-57.6 0-19.2 0-38.4-6.4-57.6 0-12.8-12.8-25.6-32-25.6s-32-12.8-38.4-25.6c-6.4-12.8-6.4-32 0-51.2 6.4-12.8 6.4-25.6-6.4-38.4-25.6-25.6-57.6-44.8-96-57.6-6.4 6.4-6.4 6.4-12.8 6.4zM576 44.8c12.8-6.4 25.6-12.8 32-19.2 44.8 38.4 115.2 38.4 160 0 12.8 6.4 25.6 12.8 32 19.2-6.4 25.6 0 57.6 12.8 83.2s38.4 44.8 64 51.2v19.2 19.2c-25.6 6.4-51.2 25.6-64 51.2-12.8 25.6-19.2 57.6-12.8 83.2-6.4 25.6-19.2 32-32 38.4-44.8-38.4-115.2-38.4-153.6 0-12.8-6.4-25.6-12.8-38.4-25.6 6.4-25.6 0-57.6-12.8-83.2s-38.4-44.8-64-51.2v-38.4c25.6-6.4 51.2-25.6 64-51.2 12.8-32 19.2-64 12.8-96z"  horiz-adv-x="1024" />

    
    <glyph glyph-name="bianji" unicode="&#59336;" d="M403.2 76.8c-6.4 0-19.2 0-25.6 6.4-12.8 12.8-12.8 32 0 44.8l441.6 448 25.6 32-25.6-25.6-89.6 89.6h-12.8l-441.6-441.6c-12.8-12.8-32-12.8-44.8 0s-12.8 32 0 44.8l441.6 441.6c25.6 25.6 76.8 25.6 102.4 0l89.6-89.6c12.8-12.8 19.2-32 19.2-51.2 0-19.2-6.4-38.4-19.2-51.2l-441.6-441.6c-6.4 0-12.8-6.4-19.2-6.4zM204.8 25.6h-6.4c-19.2 6.4-25.6 19.2-25.6 38.4l51.2 198.4c6.4 19.2 19.2 25.6 38.4 25.6 19.2-6.4 25.6-19.2 25.6-38.4l-51.2-198.4c-6.4-12.8-19.2-25.6-32-25.6zM204.8 25.6c-12.8 0-25.6 6.4-32 25.6-6.4 19.2 6.4 32 25.6 38.4l198.4 51.2c19.2 6.4 32-6.4 38.4-25.6 6.4-19.2-6.4-32-25.6-38.4l-198.4-51.2h-6.4zM800 473.6c-6.4 0-19.2 0-25.6 6.4L633.6 633.6c-12.8 12.8-12.8 32 0 44.8s32 12.8 44.8 0l147.2-147.2c12.8-12.8 12.8-32 0-44.8-12.8-6.4-19.2-12.8-25.6-12.8z"  horiz-adv-x="1024" />

    
    <glyph glyph-name="bianyaqi" unicode="&#59337;" d="M774.4 38.4H243.2c-38.4 0-70.4 32-70.4 70.4V646.4c0 38.4 32 70.4 70.4 70.4h531.2c38.4 0 70.4-32 70.4-70.4v-537.6c6.4-38.4-25.6-70.4-70.4-70.4zM243.2 652.8c-6.4 0-6.4-6.4-6.4-6.4v-537.6c0-6.4 6.4-6.4 6.4-6.4h531.2c6.4 0 6.4 6.4 6.4 6.4V646.4c0 6.4-6.4 6.4-6.4 6.4H243.2zM454.4 454.4H384c-32 0-57.6 19.2-64 51.2-12.8 25.6-38.4 51.2-70.4 51.2-38.4 0-70.4-32-70.4-70.4 0-19.2-12.8-32-32-32s-32 12.8-32 32c0 76.8 57.6 134.4 134.4 134.4 57.6 0 115.2-38.4 128-96 0-6.4 6.4-6.4 6.4-6.4h70.4c19.2 0 32-12.8 32-32s-12.8-32-32-32zM454.4 300.8H384c-32 0-57.6 19.2-64 51.2-12.8 25.6-38.4 51.2-70.4 51.2-38.4 0-70.4-32-70.4-70.4 0-19.2-12.8-32-32-32s-32 12.8-32 32c0 76.8 57.6 134.4 134.4 134.4 57.6 0 115.2-38.4 128-96 0-6.4 6.4-6.4 6.4-6.4h70.4c19.2 0 32-12.8 32-32s-12.8-32-32-32zM454.4 147.2H384c-32 0-57.6 19.2-70.4 51.2-6.4 32-38.4 51.2-70.4 51.2-38.4 0-70.4-32-70.4-70.4 0-19.2-12.8-32-32-32s-32 12.8-32 32c0 76.8 57.6 134.4 134.4 134.4 57.6 0 115.2-38.4 128-96 0-6.4 6.4-6.4 6.4-6.4H448c19.2 0 32-12.8 32-32s-6.4-32-25.6-32zM870.4 454.4c-19.2 0-32 12.8-32 32 0 38.4-32 70.4-70.4 70.4-32 0-57.6-19.2-70.4-51.2-6.4-32-38.4-51.2-70.4-51.2h-64c-19.2 0-32 12.8-32 32s12.8 32 32 32h70.4c6.4 0 6.4 0 6.4 6.4 12.8 51.2 64 96 128 96 76.8 0 134.4-57.6 134.4-134.4 0-19.2-12.8-32-32-32zM870.4 300.8c-19.2 0-32 12.8-32 32 0 38.4-32 70.4-70.4 70.4-32 0-57.6-19.2-70.4-51.2-6.4-32-38.4-51.2-70.4-51.2h-64c-19.2 0-32 12.8-32 32s12.8 32 32 32h70.4c6.4 0 6.4 0 6.4 6.4 19.2 57.6 70.4 96 128 96 76.8 0 134.4-57.6 134.4-134.4 0-19.2-12.8-32-32-32zM870.4 147.2c-19.2 0-32 12.8-32 32 0 38.4-32 70.4-70.4 70.4-32 0-57.6-19.2-70.4-51.2-6.4-32-38.4-51.2-70.4-51.2h-64c-19.2 0-32 12.8-32 32s12.8 32 32 32h70.4c6.4 0 6.4 0 6.4 6.4 19.2 57.6 70.4 96 128 96 76.8 0 134.4-57.6 134.4-134.4 0-19.2-12.8-32-32-32zM563.2 147.2H460.8c-19.2 0-32 12.8-32 32V512c0 25.6 25.6 51.2 51.2 51.2h64c25.6 0 51.2-25.6 51.2-51.2v-339.2c0-12.8-19.2-25.6-32-25.6z m-70.4 64h38.4V505.6h-38.4v-294.4z"  horiz-adv-x="1024" />

    
    <glyph glyph-name="bingwangdian" unicode="&#59338;" d="M512-10.88c-215.104 0-390.144 174.976-390.144 390.08S296.896 769.28 512 769.28c215.04 0 390.08-174.976 390.08-390.08S727.04-10.88 512-10.88zM512 705.28c-179.84 0-326.144-146.304-326.144-326.08S332.16 53.12 512 53.12s326.08 146.304 326.08 326.08S691.84 705.28 512 705.28zM640.192 233.792H640c-56.32 0.064-102.144 52.096-153.6 130.176-16.576 24.768-67.264 100.544-101.696 100.544h-0.128c-34.176-0.256-83.264-75.584-99.392-100.416a31.936 31.936 0 1 0-53.632 34.944c43.584 67.008 92.288 129.024 152.576 129.408 56.128 0.64 103.488-51.328 155.584-129.088 16.64-25.28 66.944-101.504 100.416-101.568h0.064c33.664 0 84.48 76.352 101.184 101.504a32 32 0 0 0 53.248-35.392c-51.904-78.08-97.984-130.112-154.432-130.112z"  horiz-adv-x="1024" />

    
    <glyph glyph-name="bingtu" unicode="&#59339;" d="M512-6.4c-217.6 0-390.4 172.8-390.4 390.4 0 217.6 172.8 390.4 390.4 390.4 217.6 0 390.4-172.8 390.4-390.4 0-217.6-172.8-390.4-390.4-390.4zM512 710.4C332.8 710.4 185.6 563.2 185.6 384s147.2-326.4 326.4-326.4 326.4 147.2 326.4 326.4S691.2 710.4 512 710.4zM512 352c-19.2 0-32 12.8-32 32V742.4c0 19.2 12.8 32 32 32s32-12.8 32-32V384c0-19.2-12.8-32-32-32zM768 96c-6.4 0-19.2 0-25.6 6.4l-256 256c-12.8 12.8-12.8 32 0 44.8s32 12.8 44.8 0l256-256c12.8-12.8 12.8-32 0-44.8-6.4 0-12.8-6.4-19.2-6.4zM870.4 352H512c-19.2 0-32 12.8-32 32s12.8 32 32 32h358.4c19.2 0 32-12.8 32-32s-12.8-32-32-32z"  horiz-adv-x="1024" />

    
    <glyph glyph-name="biaoge" unicode="&#59340;" d="M480 691.2h64v-614.4h-64zM204.8 518.4h614.4v-64H204.8zM204.8 313.6h614.4v-64H204.8zM780.8 44.8H243.2c-38.4 0-70.4 32-70.4 70.4V652.8c0 38.4 32 70.4 70.4 70.4h537.6c38.4 0 70.4-32 70.4-70.4v-537.6c0-38.4-32-70.4-70.4-70.4zM243.2 659.2c-6.4 0-6.4-6.4-6.4-6.4v-537.6c0-6.4 6.4-6.4 6.4-6.4h537.6c6.4 0 6.4 6.4 6.4 6.4V652.8c0 6.4-6.4 6.4-6.4 6.4H243.2z"  horiz-adv-x="1024" />

    
    <glyph glyph-name="butieshouyi" unicode="&#59341;" d="M563.136-46.976a32 32 0 0 0-26.176 13.568 438.528 438.528 0 0 0-80.192 253.952c0 210.816 149.824 392.96 356.224 433.088a32.064 32.064 0 0 0 12.224-62.848 377.472 377.472 0 0 1-304.512-370.304c0-78.4 23.68-153.408 68.544-217.088a32 32 0 1 0-26.112-50.368zM543.104 266.752c-33.472 0-56 3.264-56 3.264a32.128 32.128 0 0 0-27.2 27.2c-1.024 7.552-25.28 186.816 74.816 286.848 64.512 64.512 161.152 78.016 230.72 78.016 33.472 0 56-3.264 56-3.264 14.08-2.048 25.216-13.12 27.2-27.2 1.088-7.616 25.216-186.752-74.752-286.848-64.512-64.448-161.088-78.016-230.784-78.016z m-21.888 64.512c6.4-0.32 13.76-0.512 21.952-0.512 47.104 0 133.952 7.68 185.536 59.328 58.624 58.688 61.12 160.512 58.752 207.552a442.752 442.752 0 0 1-21.952 0.512c-47.104 0-133.888-7.68-185.472-59.328-58.752-58.688-61.248-160.512-58.816-207.552zM488.768 188.48a32 32 0 0 0-32 32 377.664 377.664 0 0 1-304.768 370.304 32 32 0 1 0 12.224 62.784 441.728 441.728 0 0 0 356.48-433.088 31.936 31.936 0 0 0-31.936-32zM434.176 266.752c-69.632 0-166.272 13.568-230.848 78.08-100.096 100.096-75.84 279.296-74.752 286.912a32 32 0 0 0 27.2 27.136s22.528 3.264 56 3.264c69.632 0 166.272-13.504 230.784-78.08 99.968-100.032 75.904-279.296 74.816-286.848a32.128 32.128 0 0 0-27.2-27.2s-22.528-3.264-56-3.264zM189.888 597.568c-2.368-47.04 0.256-149.056 58.688-207.488 51.648-51.648 138.496-59.328 185.6-59.328 8.128 0 15.552 0.192 21.888 0.512 2.304 47.168-0.384 149.184-58.688 207.552-51.712 51.648-138.496 59.328-185.6 59.328-8.192 0-15.552-0.256-21.888-0.576z"  horiz-adv-x="1024" />

    
    <glyph glyph-name="biaozhunmei" unicode="&#59342;" d="M742.4 96v64a5.952 5.952 0 0 1 5.568 3.648l70.912 174.592a7.68 7.68 0 0 1-0.768 7.488 7.936 7.936 0 0 1-6.656 3.52H212.992a8 8 0 0 1-7.424-11.072l70.464-174.464a6.08 6.08 0 0 1 5.632-3.712v-64a69.76 69.76 0 0 0-64.896 43.776L146.24 314.176a71.936 71.936 0 0 0 66.752 99.008h598.528a71.872 71.872 0 0 0 66.624-99.2l-70.848-174.4a69.76 69.76 0 0 0-64.896-43.584zM435.136 160h153.6v-64h-153.6zM691.52 350.912H334.784a138.816 138.816 0 0 0-98.432 41.472 132.736 132.736 0 0 0-38.464 95.808c0.96 57.088 41.344 108.992 98.176 126.08 3.072 0.96 5.312 4.352 5.312 8.064 0 5.12 0.32 10.112 0.96 14.464A159.552 159.552 0 0 0 448 774.208a157.632 157.632 0 0 0 140.736-64.64 135.936 135.936 0 0 0 71.616 12.736 135.296 135.296 0 0 0 121.536-134.464c28.16-25.472 44.288-61.504 44.288-99.84 0.064-75.584-60.352-137.088-134.656-137.088zM460.224 710.656l-7.424-0.256a95.488 95.488 0 0 1-87.04-82.432c-0.576-38.144-21.056-65.856-51.264-74.88-30.464-9.216-52.096-36.352-52.608-66.048-0.384-18.56 6.784-36.224 20.16-49.856 13.952-14.144 33.152-22.272 52.736-22.272h356.736c38.4 0 70.72 33.472 70.72 73.088 0 21.184-9.408 41.088-25.792 54.592a52.096 52.096 0 0 0-18.688 41.856 71.04 71.04 0 0 1-63.424 74.176 70.784 70.784 0 0 1-43.136-9.536 52.992 52.992 0 0 0-70.4 17.28 95.168 95.168 0 0 1-80.576 44.288zM358.4 19.2c-59.968 0-108.736 48.832-108.736 108.8s48.768 108.8 108.736 108.8c60.032 0 108.8-48.832 108.8-108.8s-48.768-108.8-108.8-108.8z m0 153.6a44.8 44.8 0 1 1 0.128-89.6 44.8 44.8 0 0 1-0.128 89.6zM665.6 19.2c-60.032 0-108.864 48.832-108.864 108.8s48.832 108.8 108.864 108.8c59.968 0 108.736-48.832 108.736-108.8s-48.768-108.8-108.736-108.8z m0 153.6a44.864 44.864 0 1 1 0-89.728 44.864 44.864 0 0 1 0 89.728z"  horiz-adv-x="1024" />

    
    <glyph glyph-name="bianjiSVG" unicode="&#59343;" d="M400.512 95.61599999999999a32 32 0 0 0-22.656 54.592l443.008 443.072v11.328l-88.256 88.256h-11.328l-443.008-443.072a32 32 0 0 0-45.248 45.248l443.008 443.072c13.632 13.568 31.68 21.12 50.944 21.12h0.064c19.264 0 37.312-7.552 50.88-21.12l88.192-88.192a71.872 71.872 0 0 0 0-101.824l-443.008-443.008a31.488 31.488 0 0 0-22.592-9.472zM204.864 44.73599999999999a32.064 32.064 0 0 0-30.976 40.064l50.88 195.712a32 32 0 1 0 61.952-16.128l-50.88-195.712a32.192 32.192 0 0 0-30.976-23.936zM204.8 44.73599999999999a32 32 0 0 0-8 62.976l195.712 50.88a32 32 0 0 0 16.128-61.952l-195.712-50.88a32.512 32.512 0 0 0-8.128-1.024zM799.424 494.592a32.128 32.128 0 0 0-22.656 9.344L631.936 648.768a32 32 0 0 0 45.248 45.248l144.896-144.832a32 32 0 0 0-22.656-54.592zM599.744 40.76800000000003c-1.216 2.176-1.92 4.608-3.456 6.656l-1.088 1.024c-0.32 0.384-0.448 0.832-0.768 1.216a80 80 0 0 1-10.56 9.728 32 32 0 0 1 15.872 27.648c0 40.32-37.504 73.152-83.584 73.152s-83.584-32.832-83.584-73.152a57.664 57.664 0 0 1 20.736-44.16 31.808 31.808 0 0 1-24.512-30.656c0-41.024 39.296-73.152 89.472-73.152s89.472 32.128 89.472 73.152a58.624 58.624 0 0 1-6.656 25.984c-0.256 0.896-0.896 1.664-1.344 2.56z m-83.52 55.296c12.608 0 19.584-6.848 19.584-9.152 0-1.664 0.128-3.392 0.384-4.992a454.208 454.208 0 0 1-27.456 6.912l-9.024 2.048a25.856 25.856 0 0 0 16.512 5.184zM492.8 12.607999999999947a31.04 31.04 0 0 1-4.736 15.424l6.336-1.536c14.656-3.392 35.072-8.384 46.784-15.808-3.136-3.2-10.24-7.552-22.848-7.552-15.168 0-24.192 6.592-25.536 9.472zM766.976 158.65599999999995a32 32 0 0 1-39.936-21.312l-26.944-88.384-29.056 89.024a32 32 0 1 1-60.864-19.904l48.512-148.288a44.16 44.16 0 0 1 42.112-30.72l0.512 0.064a44.16 44.16 0 0 1 41.92 31.616l45.056 148.032a32 32 0 0 1-21.312 39.872zM972.608 99.45600000000002c-17.344 37.376-51.968 60.608-90.304 60.608-55.744 0-101.12-49.536-101.12-110.528 0-24.704 8.512-47.808 22.272-67.072 0.384-0.832 0.384-1.664 0.832-2.496 0.512-0.896 1.408-1.536 1.984-2.432l0.448-0.704c0.384-0.576 0.448-1.216 0.896-1.664l0.128-0.064v-0.064l0.384-0.32c0.512-0.512 1.152-0.768 1.6-1.344 6.592-8.704 15.36-16.256 26.752-21.952 0.512-0.256 0.832-0.832 1.344-1.088h0.064l0.064-0.064c0.32-0.192 0.704-0.192 1.024-0.384 0.32-0.128 0.512-0.384 0.896-0.576l0.192-0.064c1.216-0.512 2.56-0.768 3.84-1.28 10.816-4.864 22.656-7.744 36.416-8.32 0.896-0.064 1.664-0.32 2.56-0.384l0.448-0.128 1.792-0.064h0.256l5.824-0.128a121.6 121.6 0 0 1 58.496 14.016l0.32 0.064c4.288 2.368 8.128 4.992 11.648 7.808a32.128 32.128 0 0 1 12.032 25.024v55.232a31.744 31.744 0 0 1-8.64 21.568 32.128 32.128 0 0 1 7.552 36.8z m-90.304-3.392c12.992 0 25.024-8.896 31.744-22.912h-22.976a32 32 0 0 1 0-64h18.432v-3.2a89.984 89.984 0 0 0-22.208-2.752l-0.32-0.064-0.128 0.064a63.232 63.232 0 0 0-19.776 4.352 36.288 36.288 0 0 0-10.304 8.512l-0.128 0.064v0.064a51.84 51.84 0 0 0-11.52 33.344c0.064 25.664 16.704 46.528 37.184 46.528z"  horiz-adv-x="1024" />

    
    <glyph glyph-name="caidan" unicode="&#59344;" d="M921.6 608H102.4c-19.2 0-32 12.8-32 32s12.8 32 32 32h819.2c19.2 0 32-12.8 32-32s-12.8-32-32-32zM921.6 352H102.4c-19.2 0-32 12.8-32 32s12.8 32 32 32h819.2c19.2 0 32-12.8 32-32s-12.8-32-32-32zM921.6 96H102.4c-19.2 0-32 12.8-32 32s12.8 32 32 32h819.2c19.2 0 32-12.8 32-32s-12.8-32-32-32z"  horiz-adv-x="1024" />

    
    <glyph glyph-name="cedianguanli" unicode="&#59345;" d="M563.2 166.4c-19.2 0-38.4 6.4-51.2 19.2l-128 128c-6.4 6.4-6.4 32 0 44.8s32 12.8 44.8 0l128-128h6.4l128 128c12.8 12.8 32 12.8 44.8 0s12.8-32 0-44.8l-128-128c-6.4-12.8-25.6-19.2-44.8-19.2zM563.2 166.4c-19.2 0-32 12.8-32 32V588.8c0 19.2 12.8 32 32 32s32-12.8 32-32v-390.4c0-19.2-12.8-32-32-32zM716.8 44.8H339.2c-147.2 0-262.4 115.2-268.8 256 0 70.4 25.6 134.4 76.8 185.6 51.2 51.2 115.2 76.8 185.6 76.8h12.8c6.4 0 6.4 0 6.4 6.4 44.8 89.6 134.4 147.2 236.8 147.2 140.8 0 249.6-108.8 262.4-243.2 64-44.8 102.4-115.2 102.4-198.4 0-121.6-102.4-230.4-236.8-230.4z m-384 460.8c-51.2 0-102.4-19.2-140.8-57.6-38.4-38.4-57.6-89.6-57.6-140.8 0-108.8 89.6-198.4 204.8-198.4h384c96 0 172.8 76.8 172.8 172.8 0 64-32 115.2-83.2 147.2-12.8 6.4-19.2 19.2-19.2 25.6 0 108.8-89.6 198.4-198.4 198.4-83.2 6.4-153.6-38.4-185.6-108.8-12.8-25.6-38.4-38.4-70.4-38.4h-6.4z"  horiz-adv-x="1024" />

    
    <glyph glyph-name="chakanxiangqing" unicode="&#59346;" d="M780.8 44.8H243.2c-38.4 0-70.4 32-70.4 70.4V652.8c0 38.4 32 70.4 70.4 70.4h531.2c38.4 0 70.4-32 70.4-70.4v-537.6c6.4-38.4-25.6-70.4-64-70.4zM243.2 659.2c-6.4 0-6.4-6.4-6.4-6.4v-537.6c0-6.4 6.4-6.4 6.4-6.4h531.2c6.4 0 6.4 6.4 6.4 6.4V652.8c0 6.4-6.4 6.4-6.4 6.4H243.2zM716.8 505.6h-256c-19.2 0-32 12.8-32 32s12.8 32 32 32h256c19.2 0 32-12.8 32-32s-19.2-32-32-32zM716.8 352h-256c-19.2 0-32 12.8-32 32s12.8 32 32 32h256c19.2 0 32-12.8 32-32s-19.2-32-32-32zM716.8 198.4h-256c-19.2 0-32 12.8-32 32s12.8 32 32 32h256c19.2 0 32-12.8 32-32s-19.2-32-32-32zM358.4 352h-51.2c-19.2 0-32 12.8-32 32s12.8 32 32 32h51.2c19.2 0 32-12.8 32-32s-12.8-32-32-32zM358.4 505.6h-51.2c-19.2 0-32 12.8-32 32s12.8 32 32 32h51.2c19.2 0 32-12.8 32-32s-12.8-32-32-32zM358.4 198.4h-51.2c-19.2 0-32 12.8-32 32s12.8 32 32 32h51.2c19.2 0 32-12.8 32-32s-12.8-32-32-32z"  horiz-adv-x="1024" />

    
    <glyph glyph-name="buju" unicode="&#59347;" d="M779.136 43.904h-534.4c-39.68 0-71.936 32.32-71.936 72V652.096c0 39.68 32.256 72 71.936 72h534.4c39.744 0 72.064-32.32 72.064-72v-536.256c0-39.68-32.32-71.936-72.064-71.936z m-534.4 616.192a8 8 0 0 1-7.936-8v-536.256c0-4.416 3.584-8 7.936-8h534.4a8.192 8.192 0 0 1 8.064 8V652.096a8.064 8.064 0 0 1-8.064 8h-534.4zM819.2 454.4H204.8a32 32 0 0 0 0 64h614.4a32 32 0 0 0 0-64zM614.72 42.624a32 32 0 0 0-32 32V485.12a32 32 0 0 0 64 0v-410.496a32 32 0 0 0-32-32z"  horiz-adv-x="1024" />

    
    <glyph glyph-name="caozuopiao" unicode="&#59348;" d="M780.8-6.4H563.2c-19.2 0-32 12.8-32 32s12.8 32 32 32h217.6c6.4 0 6.4 6.4 6.4 6.4V704c0 6.4-6.4 6.4-6.4 6.4H614.4c-19.2 0-32 12.8-32 32s12.8 32 32 32h166.4c38.4 0 70.4-32 70.4-70.4v-640c0-38.4-32-70.4-70.4-70.4zM358.4-57.6c-38.4 0-70.4 12.8-96 38.4-25.6 25.6-38.4 57.6-38.4 96V390.4s0 6.4-6.4 6.4c-64 44.8-102.4 115.2-102.4 192 0 83.2 44.8 166.4 121.6 204.8 12.8 6.4 19.2 6.4 32 0s19.2-12.8 19.2-25.6v-134.4c0-6.4 6.4-6.4 6.4-6.4h128c6.4 0 6.4 6.4 6.4 6.4V768c0 12.8 6.4 19.2 19.2 25.6 12.8 6.4 19.2 6.4 32 0 70.4-44.8 121.6-121.6 121.6-204.8 0-76.8-38.4-147.2-102.4-192l-6.4-6.4v-313.6c0-76.8-57.6-134.4-134.4-134.4zM224 697.6c-25.6-32-38.4-70.4-38.4-108.8 0-57.6 25.6-108.8 70.4-140.8 19.2-12.8 32-38.4 32-57.6v-313.6c0-19.2 6.4-38.4 19.2-51.2 12.8-12.8 32-19.2 51.2-19.2 38.4 0 70.4 32 70.4 70.4V390.4c0 25.6 12.8 44.8 32 57.6 44.8 32 70.4 83.2 70.4 140.8 0 38.4-12.8 76.8-38.4 108.8v-70.4c0-38.4-32-70.4-70.4-70.4h-128c-38.4 0-70.4 32-70.4 70.4V697.6zM358.4 19.2c-32 0-57.6 25.6-57.6 57.6s25.6 57.6 57.6 57.6 57.6-25.6 57.6-57.6-25.6-57.6-57.6-57.6z m0 64c-6.4 0-6.4 0 0 0-6.4-12.8 6.4-12.8 0 0 6.4 0 6.4 0 0 0zM716.8 147.2H563.2c-19.2 0-32 12.8-32 32s12.8 32 32 32h153.6c19.2 0 32-12.8 32-32s-12.8-32-32-32zM716.8 300.8H563.2c-19.2 0-32 12.8-32 32s12.8 32 32 32h153.6c19.2 0 32-12.8 32-32s-12.8-32-32-32zM716.8 454.4H614.4c-19.2 0-32 12.8-32 32s12.8 32 32 32h102.4c19.2 0 32-12.8 32-32s-12.8-32-32-32z"  horiz-adv-x="1024" />

    
    <glyph glyph-name="chexiao" unicode="&#59349;" d="M307.2 352c-6.4 0-19.2 0-25.6 6.4L128 518.4c-12.8 6.4-12.8 32 0 44.8s32 12.8 44.8 0l153.6-153.6c12.8-12.8 12.8-32 0-44.8-6.4-6.4-12.8-12.8-19.2-12.8zM153.6 505.6c-6.4 0-19.2 6.4-25.6 12.8-12.8 6.4-12.8 32 0 44.8l153.6 153.6c12.8 12.8 32 12.8 44.8 0s12.8-32 0-44.8L172.8 518.4c-6.4-6.4-12.8-12.8-19.2-12.8zM665.6 505.6h-512c-19.2 0-32 12.8-32 32s12.8 32 32 32h512c19.2 0 32-12.8 32-32s-12.8-32-32-32zM921.6 249.6c-19.2 0-32 12.8-32 32 0 121.6-102.4 224-224 224-19.2 0-32 12.8-32 32s12.8 32 32 32c160 0 288-128 288-288 0-19.2-12.8-32-32-32zM921.6 96c-19.2 0-32 12.8-32 32V281.6c0 19.2 12.8 32 32 32s32-12.8 32-32V128c0-19.2-12.8-32-32-32z"  horiz-adv-x="1024" />

    
    <glyph glyph-name="chuneng" unicode="&#59350;" d="M832 96H192c-38.4 0-70.4 32-70.4 70.4V601.6c0 38.4 32 70.4 70.4 70.4h640c38.4 0 70.4-32 70.4-70.4v-435.2c0-38.4-32-70.4-70.4-70.4z m-640 512l-6.4-6.4v-435.2c0-6.4 6.4-6.4 6.4-6.4h640c6.4 0 6.4 6.4 6.4 6.4V601.6c0 6.4-6.4 6.4-6.4 6.4H192zM409.6 608c-19.2 0-32 12.8-32 32V704c0 6.4-6.4 6.4-6.4 6.4H294.4l-6.4-6.4v-64c0-19.2-12.8-32-32-32s-32 12.8-32 32V704c0 38.4 32 70.4 70.4 70.4h70.4c38.4 0 70.4-32 70.4-70.4v-64c6.4-19.2-6.4-32-25.6-32zM768 608c-19.2 0-32 12.8-32 32V704c0 6.4-6.4 6.4-6.4 6.4h-70.4c-6.4 0-6.4-6.4-6.4-6.4v-64c0-19.2-12.8-32-32-32s-38.4 12.8-38.4 32V704c0 38.4 32 70.4 70.4 70.4h70.4c38.4 0 70.4-32 70.4-70.4v-64c6.4-19.2-6.4-32-25.6-32zM460.8 352H256c-19.2 0-32 12.8-32 32s12.8 32 32 32h204.8c19.2 0 32-12.8 32-32s-12.8-32-32-32zM768 352H563.2c-19.2 0-32 12.8-32 32s12.8 32 32 32H768c19.2 0 32-12.8 32-32s-12.8-32-32-32zM358.4 249.6c-19.2 0-32 12.8-32 32V486.4c0 19.2 12.8 32 32 32s32-12.8 32-32v-204.8c0-19.2-12.8-32-32-32z"  horiz-adv-x="1024" />

    
    <glyph glyph-name="chunengdanyuan" unicode="&#59351;" d="M779.136 44.736h-534.4c-39.68 0-72 32.32-72 72V651.2c0 39.68 32.32 72 72 72h534.4c39.68 0 72-32.32 72-72v-534.464c0-39.68-32.32-72-72-72zM244.736 659.2a8 8 0 0 1-8-8v-534.464c0-4.416 3.584-8 8-8h534.4a8 8 0 0 1 8 8V651.2a8 8 0 0 1-8 8h-534.4zM395.136 161.088a19.2 19.2 0 0 0-15.68 30.272l144.832 204.032-130.304 0.128a19.2 19.2 0 0 0-13.568 32.768L557.44 605.248a19.2 19.2 0 0 0 13.568 5.568h58.88a19.2 19.2 0 1 0 13.568-32.832L498.56 433.856l131.328-0.064a19.2 19.2 0 0 0 13.568-32.768l-234.752-234.368a19.136 19.136 0 0 0-13.568-5.568z m163.392 234.368a19.072 19.072 0 0 0-1.344-20.032l-15.232-21.44 41.536 41.408h-24.96z m-118.208 38.4h25.664a19.2 19.2 0 0 0 2.496 24.256l114.88 114.304h-4.416L440.32 433.856z"  horiz-adv-x="1024" />

    
    <glyph glyph-name="chuku" unicode="&#59352;" d="M768.448-6.464H233.984c-39.68 0-72 32.32-72 72V351.68h-37.376a41.856 41.856 0 0 0-39.424 26.112 52.032 52.032 0 0 0 10.88 54.72l355.968 355.904a69.632 69.632 0 0 0 98.496 0l355.968-355.904a32 32 0 0 0-45.248-45.248L505.28 743.168a5.632 5.632 0 0 1-8 0L169.664 415.68h24.32a32 32 0 0 0 32-32v-318.144c0-4.288 3.648-8 8-8h534.464a8.192 8.192 0 0 1 8.064 8 32 32 0 0 0 64 0c0-39.68-32.32-72-72.064-72zM715.52 94.656a32 32 0 0 0-22.656 54.592l132.288 132.224-132.288 132.352a32 32 0 0 0 45.248 45.248l154.944-155.008a32 32 0 0 0 0-45.312l-154.944-154.88a32.32 32.32 0 0 0-22.592-9.216zM869.76 249.536H409.6a32 32 0 0 0 0 64h460.096a32 32 0 0 0 0.064-64z"  horiz-adv-x="1024" />

    
    <glyph glyph-name="chuli" unicode="&#59353;" d="M512-6.016c-215.04 0-390.016 174.912-390.016 390.016S296.96 774.016 512 774.016c215.104 0 390.144-174.976 390.144-390.016S727.104-6.016 512-6.016zM512 710.016A326.4 326.4 0 0 1 185.984 384 326.4 326.4 0 0 1 512 57.984 326.4 326.4 0 0 1 838.144 384 326.4 326.4 0 0 1 512 710.016zM665.6 505.664H358.4a32 32 0 0 0 0 64h307.2a32 32 0 0 0 0-64zM665.6 352H358.4a32 32 0 0 0 0 64h307.2a32 32 0 0 0 0-64zM512 198.4H358.464a32 32 0 0 0 0 64H512a32 32 0 0 0 0-64z"  horiz-adv-x="1024" />

    
    <glyph glyph-name="chuizhijuzhongduiqi" unicode="&#59354;" d="M870.656 352H153.344a32 32 0 0 0 0 64h717.376a32 32 0 1 0-0.064-64zM730.88 149.376h-128c-39.68 0-72 32.32-72 72V549.376c0 39.68 32.32 72 72 72h128c39.68 0 72-32.32 72-72v-328c0-39.68-32.32-72-72-72z m-128 408a8.128 8.128 0 0 1-8-8v-328c0-4.416 3.584-8 8-8h128c4.48 0 8 3.52 8 8V549.376a8 8 0 0 1-8 8h-128zM420.992 44.8H296.256c-39.68 0-72 32.32-72 72V651.264c0 39.68 32.32 72 72 72h124.736c39.68 0 72-32.32 72-72v-534.464c0-39.68-32.32-72-72-72zM296.256 659.264a8 8 0 0 1-8-8v-534.464c0-4.416 3.584-8 8-8h124.736a8 8 0 0 1 8 8V651.264a8 8 0 0 1-8 8H296.256z"  horiz-adv-x="1024" />

    
    <glyph glyph-name="danxuankuang-moren" unicode="&#59355;" d="M512-7.488a390.528 390.528 0 0 0-390.144 390.08A390.528 390.528 0 0 0 512 772.672a390.464 390.464 0 0 0 390.016-390.08A390.464 390.464 0 0 0 512-7.488zM512 708.608a326.464 326.464 0 0 1-326.144-326.08A326.4 326.4 0 0 1 512 56.448a326.4 326.4 0 0 1 326.016 326.08A326.4 326.4 0 0 1 512 708.608z"  horiz-adv-x="1024" />

    
    <glyph glyph-name="daping" unicode="&#59356;" d="M830.656 97.728H193.344a72.128 72.128 0 0 0-72.064 72V601.664c0 39.68 32.32 72 72.064 72h637.248c39.68 0 72-32.32 72-72v-431.936a72 72 0 0 0-71.936-72zM193.344 609.664a8.064 8.064 0 0 1-8.064-8v-431.936c0-4.416 3.648-8 8.064-8h637.248a8 8 0 0 1 8 8V601.664a7.936 7.936 0 0 1-8 8H193.344zM716.544-8.128H307.008a32 32 0 0 0 0 64h409.536a32 32 0 0 0 0-64z"  horiz-adv-x="1024" />

    
    <glyph glyph-name="daochu" unicode="&#59357;" d="M512 236.8c-19.2 0-32 12.8-32 32v512c0 19.2 12.8 32 32 32s32-12.8 32-32v-512c0-19.2-12.8-32-32-32zM780.8 32H243.2c-38.4 0-70.4 32-70.4 70.4v384c0 38.4 32 70.4 70.4 70.4h64c19.2 0 32-12.8 32-32s-12.8-32-32-32h-64c-6.4 0-6.4-6.4-6.4-6.4v-384c0-6.4 6.4-6.4 6.4-6.4h531.2c6.4 0 6.4 6.4 6.4 6.4v384c0 6.4-6.4 6.4-6.4 6.4h-64c-19.2 0-32 12.8-32 32s12.8 32 32 32h64c38.4 0 70.4-32 70.4-70.4v-384c6.4-38.4-25.6-70.4-64-70.4zM358.4 601.6c-6.4 0-12.8 0-19.2 6.4-12.8 12.8-12.8 32-6.4 44.8l153.6 160c6.4 6.4 19.2 12.8 25.6 12.8 6.4 0 19.2-6.4 25.6-12.8l153.6-160c12.8-12.8 12.8-32 0-44.8-12.8-12.8-32-12.8-44.8 0L512 742.4 384 608c-6.4-6.4-19.2-6.4-25.6-6.4z"  horiz-adv-x="1024" />

    
    <glyph glyph-name="daohang" unicode="&#59358;" d="M496.192 6.848a51.584 51.584 0 0 0-51.136 41.92l-50.752 261.504a8.064 8.064 0 0 1-6.912 6.4L160.64 343.616a51.456 51.456 0 0 0-45.312 43.968 51.328 51.328 0 0 0 30.464 55.232l500.928 219.648a72.768 72.768 0 0 0 88.256-25.152c13.568-19.52 16.576-43.584 8.192-65.984l-198.336-530.688a51.52 51.52 0 0 0-48.64-33.792zM212.032 401.92l182.912-21.696c31.232-3.776 56.192-26.944 62.144-57.728l42.688-219.712 183.424 490.944a7.168 7.168 0 0 1-0.768 7.168 8.32 8.32 0 0 1-6.656 3.776L212.032 401.92z"  horiz-adv-x="1024" />

    
    <glyph glyph-name="danyuan" unicode="&#59359;" d="M409.6 403.2H256c-44.8 0-83.2 38.4-83.2 83.2V640c0 44.8 38.4 83.2 83.2 83.2h153.6c44.8 0 83.2-38.4 83.2-83.2v-153.6c0-44.8-38.4-83.2-83.2-83.2zM256 659.2c-12.8 0-19.2-6.4-19.2-19.2v-153.6c0-12.8 6.4-19.2 19.2-19.2h153.6c12.8 0 19.2 6.4 19.2 19.2V640c0 12.8-6.4 19.2-19.2 19.2H256zM768 403.2H614.4c-44.8 0-83.2 38.4-83.2 83.2V640c0 44.8 38.4 83.2 83.2 83.2H768c44.8 0 83.2-38.4 83.2-83.2v-153.6c0-44.8-38.4-83.2-83.2-83.2z m-153.6 256c-12.8 0-19.2-6.4-19.2-19.2v-153.6c0-12.8 6.4-19.2 19.2-19.2H768c12.8 0 19.2 6.4 19.2 19.2V640c0 12.8-6.4 19.2-19.2 19.2H614.4zM409.6 44.8H256c-44.8 0-83.2 38.4-83.2 83.2V281.6c0 44.8 38.4 83.2 83.2 83.2h153.6c44.8 0 83.2-38.4 83.2-83.2V128c0-44.8-38.4-83.2-83.2-83.2zM256 300.8c-12.8 0-19.2-6.4-19.2-19.2V128c0-12.8 6.4-19.2 19.2-19.2h153.6c12.8 0 19.2 6.4 19.2 19.2V281.6c0 12.8-6.4 19.2-19.2 19.2H256zM768 44.8H614.4c-44.8 0-83.2 38.4-83.2 83.2V281.6c0 44.8 38.4 83.2 83.2 83.2H768c44.8 0 83.2-38.4 83.2-83.2V128c0-44.8-38.4-83.2-83.2-83.2z m-153.6 256c-12.8 0-19.2-6.4-19.2-19.2V128c0-12.8 6.4-19.2 19.2-19.2H768c12.8 0 19.2 6.4 19.2 19.2V281.6c0 12.8-6.4 19.2-19.2 19.2H614.4zM454.4 595.2h108.8v-64H454.4zM454.4 236.8h108.8v-64H454.4zM300.8 441.6h64v-108.8h-64zM659.2 441.6h64v-108.8h-64z"  horiz-adv-x="1024" />

    
    <glyph glyph-name="daoru" unicode="&#59360;" d="M512 249.6c-6.4 0-19.2 0-25.6 6.4L332.8 416c-12.8 12.8-12.8 32 0 44.8s32 12.8 44.8 0l153.6-153.6c12.8-12.8 12.8-32 0-44.8 0-12.8-12.8-12.8-19.2-12.8zM512 249.6c-6.4 0-19.2 0-25.6 6.4-12.8 12.8-12.8 32 0 44.8L640 454.4c12.8 12.8 32 12.8 44.8 0s12.8-32 0-44.8L531.2 256c0-6.4-12.8-6.4-19.2-6.4zM512 249.6c-19.2 0-32 12.8-32 32v512c0 19.2 12.8 32 32 32s32-12.8 32-32v-512c0-19.2-12.8-32-32-32zM780.8 44.8H243.2c-38.4 0-70.4 32-70.4 70.4v384c0 38.4 32 70.4 70.4 70.4h64c19.2 0 32-12.8 32-32s-12.8-32-32-32h-64c-6.4 0-6.4-6.4-6.4-6.4v-384c0-6.4 6.4-6.4 6.4-6.4h537.6c6.4 0 6.4 6.4 6.4 6.4v384c0 6.4-6.4 6.4-6.4 6.4h-64c-19.2 0-32 12.8-32 32s12.8 32 32 32h64c38.4 0 70.4-32 70.4-70.4v-384c0-38.4-32-70.4-70.4-70.4z"  horiz-adv-x="1024" />

    
    <glyph glyph-name="dianbiao" unicode="&#59361;" d="M768 38.39999999999998H236.8c-38.4 0-70.4 32-70.4 70.528V646.4c0 38.4 32 70.4 70.4 70.4H768c38.4 0 70.4-32 70.4-70.4v-537.6c0-41.792-25.6-70.4-70.4-70.4zM230.4 652.8v-537.6c0-6.4 6.4-6.4 6.4-6.4H768c6.4 0 6.4 6.4 6.4 6.4V646.4c0 6.4-6.4 6.4-6.4 6.4H230.4zM806.528 499.2H198.08c-19.008 0-31.68 12.8-31.68 32s12.672 32 31.68 32H806.4c19.008 0 31.744-12.8 31.744-32s-19.008-32-31.616-32z m0-307.2H198.08c-19.008 0-31.68 12.8-31.68 32s12.672 32 31.68 32H806.4c19.008 0 31.744-12.8 31.744-32s-19.008-32-31.616-32zM391.488 326.4h-56.96c-12.736 0-19.008 6.4-19.008 19.2v64c0 12.8 6.336 19.2 19.008 19.2h63.36c12.672 0 19.008-6.4 19.008-19.2v-64c-0.064-15.616-12.736-19.2-25.408-19.2z m384.256 0h-31.68c-12.672 0-19.072 6.528-19.072 19.264v64c0 12.8 6.4 19.2 19.072 19.2h31.68M588.48 325.376h-56.96c-12.672 0-19.008 6.528-19.008 19.264v64c0 12.736 6.336 19.2 19.008 19.2h63.36c12.608 0 19.008-6.464 19.008-19.2v-64c0-15.616-12.608-19.264-25.408-19.264z"  horiz-adv-x="1024" />

    
    <glyph glyph-name="dengxiaozhishu" unicode="&#59362;" d="M572.864-57.92a32 32 0 0 0-32 32v165.248c0 39.68 32.32 72 72 72h122.752l-168.704 153.6a32 32 0 0 0 21.568 55.616h95.936L531.328 560a32 32 0 0 0-10.432 23.68c0 17.664 14.336 33.024 32 33.024h49.088l-85.12 77.504a8.064 8.064 0 0 1-10.752 0l-85.12-77.504h49.024a32 32 0 0 0 32-32 34.048 34.048 0 0 0-10.432-24.64L338.496 420.608h97.024a31.936 31.936 0 0 0 21.568-55.616l-168.704-153.6h121.728c39.68 0 72-32.32 72-72v-165.248a32 32 0 0 0-64 0v165.248a8 8 0 0 1-8 8H257.28a51.52 51.52 0 0 0-48.384 33.152 51.776 51.776 0 0 0 13.44 57.28l130.56 118.912h-45.376a51.712 51.712 0 0 0-48.512 33.28 51.52 51.52 0 0 0 13.44 57.152L388.48 552.704a51.648 51.648 0 0 0-47.104 33.28 51.584 51.584 0 0 0 13.632 57.216l107.904 98.304a71.68 71.68 0 0 0 97.024 0l108.032-98.432c16-14.528 21.312-36.992 13.504-57.152a51.648 51.648 0 0 0-47.04-33.28l116.032-105.664c16-14.528 21.248-36.992 13.44-57.216s-26.816-33.28-48.512-33.28h-44.16l130.496-118.848c16-14.656 21.248-37.056 13.44-57.28a51.776 51.776 0 0 0-48.512-33.216H612.864a8 8 0 0 1-8-8v-165.248a31.872 31.872 0 0 0-32-31.808z"  horiz-adv-x="1024" />

    
    <glyph glyph-name="dianqipiao" unicode="&#59363;" d="M728-6.656h-432c-39.68 0-72 32.32-72 72V702.656c0 39.68 32.32 72 72 72h432c39.68 0 72-32.32 72-72v-637.248c0-39.744-32.32-72.064-72-72.064zM296 710.656a8.064 8.064 0 0 1-8-8v-637.248c0-4.48 3.52-8 8-8h432c4.48 0 8 3.52 8 8V702.656a8 8 0 0 1-8 8h-432zM409.6 197.44a32 32 0 0 0-22.656 54.592l150.336 150.208h-128.64a32 32 0 0 0-22.656 54.656l154.624 154.496a32 32 0 0 0 45.248-45.248L485.952 466.24h128.704a32 32 0 0 0 22.592-54.592l-204.992-204.8a32 32 0 0 0-22.656-9.408zM511.104 197.44H409.6a32 32 0 0 0-32 32V331.008a32 32 0 0 0 64 0v-69.568h69.504a32 32 0 0 0 0-64z"  horiz-adv-x="1024" />

    
    <glyph glyph-name="danxuankuang-xuanzhong" unicode="&#59364;" d="M512-6.016a390.464 390.464 0 0 0-390.144 389.952A390.528 390.528 0 0 0 512 774.016a390.464 390.464 0 0 0 390.016-390.08A390.464 390.464 0 0 0 512-6.016zM512 710.016A326.4 326.4 0 0 1 185.856 384 326.4 326.4 0 0 1 512 58.048 326.4 326.4 0 0 1 838.016 384 326.4 326.4 0 0 1 512 710.016zM512 384m-204.096 0a204.096 204.096 0 1 1 408.192 0 204.096 204.096 0 1 1-408.192 0Z"  horiz-adv-x="1024" />

    
    <glyph glyph-name="diduiqi" unicode="&#59365;" d="M870.848-4.672H153.6a32 32 0 0 0 0 64h717.248a32 32 0 0 0 0-64zM731.136 94.4h-128A72.064 72.064 0 0 0 531.264 166.4V494.4c0 39.68 32.256 72 71.872 72h128c39.744 0 72.128-32.32 72.128-72V166.4c0-39.744-32.384-72-72.128-72z m-128 408a8 8 0 0 1-7.872-8V166.4c0-4.416 3.584-8 7.872-8h128c4.48 0 8.128 3.584 8.128 8V494.4a8.064 8.064 0 0 1-8.128 8h-128zM421.248 94.4H296.512c-39.68 0-72 32.32-72 72V700.8c0 39.68 32.32 72 72 72h124.736c39.68 0 72-32.32 72-72v-534.4c0-39.744-32.32-72-72-72z m-124.736 614.4a8 8 0 0 1-8-8v-534.4c0-4.416 3.584-8 8-8h124.736a8 8 0 0 1 8 8V700.8a8 8 0 0 1-8 8H296.512z"  horiz-adv-x="1024" />

    
    <glyph glyph-name="dianlijiankong" unicode="&#59366;" d="M308.992-6.4a32.064 32.064 0 0 0-26.112 50.496l253.056 356.736H355.264a51.84 51.84 0 0 0-36.736 88.832l261.44 261.504a71.68 71.68 0 0 0 50.88 21.12h85.888a32 32 0 0 0 22.592-54.656l-254.08-252.736h231.36a32 32 0 0 0 22.656-54.656l-407.616-407.232a31.808 31.808 0 0 0-22.656-9.408z m281.408 407.296a32.192 32.192 0 0 0-1.088-35.392l-35.648-50.176 85.632 85.504-48.896 0.064z m-205.888 64h50.112a31.872 31.872 0 0 0 2.56 42.432l201.984 200.96h-8.32L384.512 464.896z"  horiz-adv-x="1024" />

    
    <glyph glyph-name="dianhua" unicode="&#59367;" d="M332.8 19.2c-44.8 0-83.2 25.6-102.4 44.8l-51.2 51.2c-25.6 25.6-38.4 51.2-32 76.8 0 25.6 19.2 51.2 44.8 64l38.4 25.6c76.8 51.2 121.6 89.6 166.4 44.8l38.4-38.4c6.4-6.4 25.6-6.4 32 0l147.2 147.2c6.4 6.4 6.4 25.6 0 32l-44.8 38.4c-44.8 44.8-6.4 89.6 44.8 166.4l25.6 38.4c19.2 25.6 38.4 44.8 64 44.8s51.2-6.4 76.8-32l51.2-51.2c32-32 70.4-96 25.6-185.6-38.4-89.6-102.4-179.2-185.6-262.4-83.2-83.2-172.8-147.2-262.4-185.6-25.6-19.2-51.2-19.2-76.8-19.2z m12.8 262.4c-12.8 0-51.2-25.6-83.2-51.2l-38.4-25.6c-12.8-6.4-19.2-12.8-19.2-19.2 0-6.4 6.4-19.2 12.8-25.6l51.2-51.2c44.8-44.8 89.6-25.6 115.2-12.8 83.2 38.4 166.4 96 243.2 172.8C710.4 345.6 768 428.8 806.4 512c12.8 32 25.6 76.8-12.8 115.2l-51.2 51.2c-12.8 12.8-19.2 19.2-25.6 12.8-6.4 0-12.8-6.4-19.2-19.2l-32-32c-25.6-38.4-51.2-76.8-51.2-89.6l38.4-38.4c32-32 32-89.6 0-121.6l-147.2-147.2c-32-32-89.6-32-121.6 0l-38.4 38.4z"  horiz-adv-x="1024" />

    
    <glyph glyph-name="dianchiban" unicode="&#59368;" d="M830.592 98.624H193.408a72.128 72.128 0 0 0-72.128 72v432c0 39.68 32.32 72 72.128 72h637.12c39.744 0 72.128-32.32 72.128-72v-432c0-39.68-32.32-72-72.064-72z m-637.184 512a8.064 8.064 0 0 1-8.128-8v-432c0-4.416 3.648-8 8.128-8h637.12c4.48 0 8.128 3.584 8.128 8v432a8.064 8.064 0 0 1-8.128 8H193.408zM716.544-7.232h-409.6a32 32 0 0 0 0 64h409.6a32 32 0 0 0 0-64zM358.464 401.408H254.464a32 32 0 0 0-32 32V537.408a32 32 0 0 0 32 32h104a32 32 0 0 0 32-32v-104a32 32 0 0 0-32-32z m-72 64h40v40h-40v-40zM563.712 401.408H459.776a32 32 0 0 0-32 32V537.408a32 32 0 0 0 32 32h103.936a32 32 0 0 0 32-32v-104a32 32 0 0 0-32-32z m-71.936 64h39.936v40h-39.936v-40zM769.088 401.408h-104a32 32 0 0 0-32 32V537.408a32 32 0 0 0 32 32h104a32 32 0 0 0 32-32v-104a32 32 0 0 0-32-32z m-72 64h40v40h-40v-40zM358.464 197.632H254.464a32 32 0 0 0-32 32V333.632a32 32 0 0 0 32 32h104a32 32 0 0 0 32-32v-104a32 32 0 0 0-32-32z m-72 64h40v40h-40v-40zM563.712 197.632H459.776a32 32 0 0 0-32 32V333.632a32 32 0 0 0 32 32h103.936a32 32 0 0 0 32-32v-104a32 32 0 0 0-32-32z m-71.936 64h39.936v40h-39.936v-40zM769.088 197.632h-104a32 32 0 0 0-32 32V333.632a32 32 0 0 0 32 32h104a32 32 0 0 0 32-32v-104a32 32 0 0 0-32-32z m-72 64h40v40h-40v-40z"  horiz-adv-x="1024" />

    
    <glyph glyph-name="dianqipiao1" unicode="&#59369;" d="M779.776-7.744H245.312c-39.68 0-72 32.32-72 72V350.4h-37.44a42.048 42.048 0 0 0-39.552 26.304 51.84 51.84 0 0 0 11.264 54.72l355.712 355.712c13.184 13.184 30.656 20.416 49.344 20.416h0.064c18.624 0 36.096-7.296 49.28-20.48l355.904-355.84a47.232 47.232 0 0 0 9.856-50.688c-7.488-18.624-25.344-29.888-47.808-30.208h-60.032a32 32 0 0 0 0 64h24.384L516.544 741.888h-8.064L180.992 414.4h24.32a32 32 0 0 0 32-32v-318.144c0-4.416 3.584-8 8-8h534.464a8 8 0 0 1 8 8v114.752a32 32 0 0 0 64 0v-114.752c0-39.68-32.32-72-72-72zM615.616 93.376a32.128 32.128 0 0 0-22.656 9.344l-154.88 154.88a32 32 0 0 0 0 45.248l154.88 155.008a32 32 0 0 0 45.248-45.248L505.984 280.256l132.224-132.224a32 32 0 0 0-22.592-54.656zM921.6 248.256H461.44a32 32 0 0 0 0 64h460.16a32 32 0 0 0 0-64z"  horiz-adv-x="1024" />

    
    <glyph glyph-name="dianzhanbaobiao" unicode="&#59370;" d="M256-6.4c-6.4 0-19.2 0-25.6 6.4-12.8 12.8-12.8 32 0 44.8L384 198.4c12.8 12.8 32 12.8 44.8 0s12.8-32 0-44.8L281.6 0c-6.4-6.4-19.2-6.4-25.6-6.4zM768-6.4c-6.4 0-19.2 0-25.6 6.4l-153.6 153.6c-12.8 12.8-12.8 32 0 44.8s32 12.8 44.8 0l153.6-153.6c12.8-12.8 12.8-32 0-44.8 0 0-12.8-6.4-19.2-6.4zM832 147.2H192c-38.4 0-70.4 32-70.4 70.4V652.8c0 38.4 32 70.4 70.4 70.4h640c38.4 0 70.4-32 70.4-70.4v-435.2c0-38.4-32-70.4-70.4-70.4z m-640 512c-6.4 0-6.4-6.4-6.4-6.4v-435.2c0-6.4 6.4-6.4 6.4-6.4h640c6.4 0 6.4 6.4 6.4 6.4V652.8c0 6.4-6.4 6.4-6.4 6.4H192zM307.2 249.6c-19.2 0-32 12.8-32 32V384c0 19.2 12.8 32 32 32s32-12.8 32-32v-102.4c0-19.2-12.8-32-32-32zM512 249.6c-19.2 0-32 12.8-32 32V486.4c0 19.2 12.8 32 32 32s32-12.8 32-32v-204.8c0-19.2-12.8-32-32-32zM716.8 249.6c-19.2 0-32 12.8-32 32V588.8c0 19.2 12.8 32 32 32s32-12.8 32-32v-307.2c0-19.2-12.8-32-32-32z"  horiz-adv-x="1024" />

    
    <glyph glyph-name="dianzhanweihu" unicode="&#59371;" d="M307.2-10.112a133.44 133.44 0 0 0-94.976 39.296 133.568 133.568 0 0 0-39.424 95.104c0 35.904 14.016 69.632 39.424 94.976L432.512 439.68a8.128 8.128 0 0 1 2.176 7.168 237.952 237.952 0 0 0 66.24 206.848 239.36 239.36 0 0 0 229.632 61.312 32.128 32.128 0 0 0 14.336-53.568l-97.152-97.216c-2.688-2.688-2.688-8.64 0-11.328l88.192-88.256h11.328l97.28 97.216a31.936 31.936 0 0 0 53.568-14.4 238.336 238.336 0 0 0-61.44-229.632c-44.8-44.8-104.384-69.504-167.744-69.504-13.056 0-26.176 1.088-39.104 3.264l-29.76 20.48 22.592-22.464-220.352-220.416a133.952 133.952 0 0 0-95.104-39.296z m344 668.48a171.968 171.968 0 0 1-105.024-49.92 174.08 174.08 0 0 1-48.384-151.104c3.84-23.104-3.712-46.656-20.096-63.04l-220.224-220.288a69.696 69.696 0 0 1-20.672-49.792c0-18.816 7.296-36.48 20.672-49.792 26.56-26.496 73.024-26.432 99.584 0l220.352 220.416c16.448 16.384 39.232 24.064 62.848 20.032a173.568 173.568 0 0 1 151.104 48.384 173.696 173.696 0 0 1 49.792 104.96l-48.704-48.64a73.728 73.728 0 0 0-101.76-0.064l-88.256 88.32c-13.568 13.504-20.992 31.616-20.992 50.816s7.424 37.312 21.056 50.88l48.704 48.832zM307.136 66.624a57.792 57.792 0 0 0-40.768 98.304 58.88 58.88 0 0 0 81.472 0.064c10.88-10.88 16.896-25.344 16.896-40.768s-6.016-29.888-16.896-40.768-25.28-16.832-40.704-16.832z"  horiz-adv-x="1024" />

    
    <glyph glyph-name="dianqiyizhongpiao" unicode="&#59372;" d="M780.8-6.4H614.4c-19.2 0-32 12.8-32 32s12.8 32 32 32h166.4c6.4 0 6.4 6.4 6.4 6.4V704c0 6.4-6.4 6.4-6.4 6.4h-115.2c-19.2 0-32 12.8-32 32s12.8 32 32 32h115.2c38.4 0 70.4-32 70.4-70.4v-640c0-38.4-32-70.4-70.4-70.4zM409.6-57.6c-76.8 0-134.4 57.6-134.4 134.4V390.4s0 6.4-6.4 6.4c-64 44.8-102.4 115.2-102.4 192 0 83.2 44.8 166.4 121.6 204.8 12.8 6.4 19.2 6.4 32 0s19.2-12.8 19.2-25.6v-134.4c0-6.4 6.4-6.4 6.4-6.4h121.6c6.4 0 6.4 6.4 6.4 6.4V768c0 12.8 6.4 19.2 19.2 25.6 12.8 6.4 19.2 6.4 32 0 70.4-44.8 121.6-121.6 121.6-204.8 0-76.8-38.4-147.2-102.4-192l-6.4-6.4v-313.6c6.4-76.8-51.2-134.4-128-134.4zM275.2 697.6c-25.6-32-38.4-70.4-38.4-108.8 0-57.6 25.6-108.8 70.4-140.8 19.2-12.8 32-38.4 32-57.6v-313.6c0-38.4 32-70.4 70.4-70.4 38.4 0 70.4 32 70.4 70.4V390.4c0 19.2 12.8 44.8 32 57.6 44.8 32 70.4 83.2 70.4 140.8 0 38.4-12.8 76.8-38.4 108.8v-70.4c0-38.4-32-70.4-70.4-70.4h-128c-38.4 0-70.4 32-70.4 70.4V697.6zM409.6 19.2c-32 0-57.6 25.6-57.6 57.6s25.6 57.6 57.6 57.6 57.6-25.6 57.6-57.6-25.6-57.6-57.6-57.6z m0 64c-6.4 0-6.4 0-6.4-6.4s12.8-6.4 12.8 0 0 6.4-6.4 6.4z"  horiz-adv-x="1024" />

    
    <glyph glyph-name="dianzhanliebiao" unicode="&#59373;" d="M921.6 608H102.4c-19.2 0-32 12.8-32 32s12.8 32 32 32h819.2c19.2 0 32-12.8 32-32s-12.8-32-32-32zM307.2 403.2H102.4c-19.2 0-32 12.8-32 32s12.8 32 32 32h204.8c19.2 0 32-12.8 32-32s-12.8-32-32-32zM307.2 249.6H102.4c-19.2 0-32 12.8-32 32s12.8 32 32 32h204.8c19.2 0 32-12.8 32-32s-12.8-32-32-32zM307.2 96H102.4c-19.2 0-32 12.8-32 32s12.8 32 32 32h204.8c19.2 0 32-12.8 32-32s-12.8-32-32-32zM614.4 403.2H409.6c-19.2 0-32 12.8-32 32s12.8 32 32 32h204.8c19.2 0 32-12.8 32-32s-12.8-32-32-32zM614.4 249.6H409.6c-19.2 0-32 12.8-32 32s12.8 32 32 32h204.8c19.2 0 32-12.8 32-32s-12.8-32-32-32zM614.4 96H409.6c-19.2 0-32 12.8-32 32s12.8 32 32 32h204.8c19.2 0 32-12.8 32-32s-12.8-32-32-32zM921.6 403.2h-204.8c-19.2 0-32 12.8-32 32s12.8 32 32 32h204.8c19.2 0 32-12.8 32-32s-12.8-32-32-32zM921.6 249.6h-204.8c-19.2 0-32 12.8-32 32s12.8 32 32 32h204.8c19.2 0 32-12.8 32-32s-12.8-32-32-32zM921.6 96h-204.8c-19.2 0-32 12.8-32 32s12.8 32 32 32h204.8c19.2 0 32-12.8 32-32s-12.8-32-32-32z"  horiz-adv-x="1024" />

    
    <glyph glyph-name="dingduiqi" unicode="&#59374;" d="M870.656 708.736H153.344a32 32 0 0 0 0 64h717.312a32 32 0 0 0 0-64zM420.992 201.6h-128c-39.68 0-71.936 32.32-71.936 72V601.6c0 39.68 32.256 72 71.936 72h128c39.68 0 72-32.32 72-72v-328c0-39.68-32.32-72-72-72z m-128 408a8 8 0 0 1-7.936-8v-328c0-4.48 3.52-8 7.936-8h128c4.48 0 8 3.52 8 8V601.6a8 8 0 0 1-8 8h-128zM727.744-4.736H602.88c-39.68 0-72 32.32-72 72V601.6c0 39.68 32.32 72 72 72h124.864c39.68 0 72-32.32 72-72v-534.4c0-39.616-32.32-71.936-72-71.936zM602.88 609.6a8.128 8.128 0 0 1-8-8v-534.4c0-4.416 3.584-8 8-8h124.864c4.48 0 8 3.52 8 8V601.6a8 8 0 0 1-8 8H602.88z"  horiz-adv-x="1024" />

    
    <glyph glyph-name="dingjiandingxiu" unicode="&#59375;" d="M409.6 6.4h-6.4c-166.4 51.2-281.6 204.8-281.6 377.6 0 217.6 172.8 390.4 390.4 390.4 172.8 0 320-108.8 371.2-275.2 6.4-19.2-6.4-32-19.2-38.4-19.2-6.4-32 6.4-38.4 19.2-44.8 140.8-172.8 230.4-313.6 230.4-179.2 0-326.4-147.2-326.4-326.4 0-140.8 96-268.8 230.4-313.6 19.2-6.4 32-19.2 25.6-38.4-6.4-12.8-19.2-25.6-32-25.6zM512 352c-19.2 0-32 12.8-32 32V640c0 19.2 12.8 32 32 32s32-12.8 32-32v-256c0-19.2-12.8-32-32-32zM595.2 268.8c-6.4 0-19.2 0-25.6 6.4L486.4 358.4c-12.8 12.8-12.8 32 0 44.8s32 12.8 44.8 0L614.4 320c12.8-12.8 12.8-32 0-44.8-6.4 0-12.8-6.4-19.2-6.4zM563.2-57.6c-25.6 0-51.2 6.4-70.4 25.6-38.4 38.4-38.4 96 0 134.4l134.4 134.4c0 57.6 12.8 108.8 51.2 147.2 38.4 38.4 102.4 57.6 153.6 44.8 12.8 0 19.2-12.8 25.6-25.6 0-12.8 0-25.6-6.4-32l-57.6-57.6 44.8-44.8 57.6 57.6c6.4 6.4 19.2 12.8 32 6.4 12.8 0 19.2-12.8 25.6-25.6 12.8-57.6 0-115.2-44.8-153.6-38.4-38.4-89.6-51.2-140.8-44.8l-134.4-134.4c-19.2-25.6-44.8-32-70.4-32z m172.8 403.2c-6.4 0-6.4-6.4-12.8-12.8-25.6-25.6-32-64-25.6-96 0-12.8 0-25.6-6.4-32L537.6 64c-12.8-12.8-12.8-32 0-44.8 12.8-12.8 32-12.8 44.8 0l147.2 147.2c6.4 6.4 19.2 12.8 32 6.4 32-6.4 70.4 0 96 25.6l12.8 12.8-12.8-12.8c-12.8-12.8-32-12.8-44.8 0l-89.6 89.6c-6.4 6.4-6.4 12.8-6.4 25.6s6.4 19.2 6.4 25.6l12.8 6.4z m147.2-166.4z"  horiz-adv-x="1024" />

    
    <glyph glyph-name="dingshirenwu" unicode="&#59376;" d="M512 44.8c-185.6 0-339.2 153.6-339.2 339.2S326.4 723.2 512 723.2s339.2-153.6 339.2-339.2-153.6-339.2-339.2-339.2z m0 614.4C358.4 659.2 236.8 537.6 236.8 384s121.6-275.2 275.2-275.2 275.2 121.6 275.2 275.2S665.6 659.2 512 659.2zM512 300.8c-44.8 0-83.2 38.4-83.2 83.2 0 44.8 38.4 83.2 83.2 83.2 44.8 0 83.2-38.4 83.2-83.2 0-44.8-38.4-83.2-83.2-83.2z m0 102.4c-12.8 0-19.2-6.4-19.2-19.2 0-12.8 6.4-19.2 19.2-19.2 12.8 0 19.2 6.4 19.2 19.2 0 12.8-6.4 19.2-19.2 19.2zM512 659.2c-19.2 0-32 12.8-32 32V793.6c0 19.2 12.8 32 32 32s32-12.8 32-32v-96c0-25.6-12.8-38.4-32-38.4zM729.6 569.6c-6.4 0-19.2 0-25.6 6.4-12.8 12.8-12.8 32 0 44.8l70.4 70.4c12.8 12.8 32 12.8 44.8 0s12.8-32 0-44.8L748.8 576c-6.4 0-12.8-6.4-19.2-6.4zM614.4 761.6H409.6c-19.2 0-32 12.8-32 32s12.8 32 32 32h204.8c19.2 0 32-12.8 32-32s-12.8-32-32-32zM665.6 198.4c-6.4 0-19.2 0-25.6 6.4L524.8 326.4c-12.8 12.8-12.8 32 0 44.8s32 12.8 44.8 0l121.6-115.2c12.8-12.8 12.8-32 0-44.8-6.4-12.8-19.2-12.8-25.6-12.8z"  horiz-adv-x="1024" />

    
    <glyph glyph-name="dingjiandingxiu1" unicode="&#59377;" d="M308.47205 31.006211c-38.161491 0-69.962733 12.720497-95.403727 38.161491-50.881988 50.881988-50.881988 139.925466 0 190.807453l222.608696 222.608696c-12.720497 76.322981 12.720497 159.006211 63.602484 209.888199 57.242236 57.242236 146.285714 82.68323 228.968944 63.602484 12.720497 0 19.080745-12.720497 25.440994-25.440994 0-12.720497 0-25.440994-6.360248-31.801242L639.204969 597.068323l120.84472-120.844721c12.720497-12.720497 12.720497-31.801242 0-44.521739s-31.801242-12.720497-44.521739 0L575.602484 577.987578c-12.720497 12.720497-12.720497 31.801242 0 44.521739l76.322982 76.322981c-38.161491-6.360248-76.322981-19.080745-108.124224-50.881987-44.521739-44.521739-63.602484-108.124224-44.521739-165.36646 0-12.720497 0-25.440994-6.360248-31.801242L257.590062 215.453416c-25.440994-25.440994-25.440994-69.962733 0-101.763975 25.440994-25.440994 69.962733-25.440994 101.763975 0l31.801243 31.801242c12.720497 12.720497 31.801242 12.720497 44.521739 0s12.720497-31.801242 0-44.521739l-31.801243-31.801242c-25.440994-19.080745-57.242236-38.161491-95.403726-38.161491zM842.732919 387.180124c-6.360248 0-12.720497 0-19.080745 6.360249-12.720497 6.360248-19.080745 31.801242-12.720497 44.521739 12.720497 19.080745 19.080745 38.161491 25.440994 57.242236v12.720497l-76.322982-76.322982c-12.720497-12.720497-31.801242-12.720497-44.521739 0s-12.720497 31.801242 0 44.521739l127.204969 127.204969c6.360248 6.360248 19.080745 12.720497 31.801242 6.360249 12.720497 0 19.080745-12.720497 25.440994-25.440994 6.360248-31.801242 12.720497-69.962733 6.360249-108.124224l-38.161491-76.322981c-6.360248-6.360248-19.080745-12.720497-25.440994-12.720497zM292.509917 147.157812a25.440994 25.440994 0 1 1 35.97837 35.979627 25.440994 25.440994 0 1 1-35.97837-35.979627ZM715.52795-128c-146.285714 0-260.770186 114.484472-260.770186 260.770186s114.484472 260.770186 260.770186 260.770187 260.770186-114.484472 260.770187-260.770187-114.484472-260.770186-260.770187-260.770186z m0 457.937888c-108.124224 0-197.167702-89.043478-197.167702-197.167702s89.043478-197.167702 197.167702-197.167702c108.124224 0 197.167702 89.043478 197.167702 197.167702s-89.043478 197.167702-197.167702 197.167702zM715.52795 100.968944c-19.080745 0-31.801242 12.720497-31.801242 31.801242V272.695652c0 19.080745 12.720497 31.801242 31.801242 31.801242s31.801242-12.720497 31.801243-31.801242V132.770186c0-19.080745-12.720497-31.801242-31.801243-31.801242zM855.453416 100.968944h-139.925466c-19.080745 0-31.801242 12.720497-31.801242 31.801242s12.720497 31.801242 31.801242 31.801243h139.925466c19.080745 0 31.801242-12.720497 31.801242-31.801243s-19.080745-31.801242-31.801242-31.801242z"  horiz-adv-x="1024" />

    
    <glyph glyph-name="dingshishuaxin" unicode="&#59378;" d="M614.4 435.2c-6.4 0-19.2 0-25.6 6.4-12.8 12.8-12.8 32 0 44.8l108.8 108.8c12.8 12.8 32 12.8 44.8 0 12.8-12.8 12.8-32 0-44.8L633.6 441.6c-6.4-6.4-12.8-6.4-19.2-6.4zM723.2 544c-6.4 0-19.2 0-25.6 6.4L550.4 697.6c-12.8 12.8-12.8 32 0 44.8 12.8 12.8 32 12.8 44.8 0l153.6-147.2c12.8-12.8 12.8-32 0-44.8-12.8-6.4-19.2-6.4-25.6-6.4zM723.2 544H371.2c-19.2 0-32 12.8-32 32s12.8 32 32 32h352c19.2 0 32-12.8 32-32s-19.2-32-32-32zM115.2 288c-19.2 0-32 19.2-32 32 0 153.6 128 281.6 288 281.6 19.2 0 32-12.8 32-32s-19.2-32-32-32C249.6 537.6 147.2 441.6 147.2 320c0-12.8-12.8-32-32-32zM268.8 140.8c-6.4 0-19.2 0-25.6 6.4-12.8 12.8-12.8 32 0 44.8l153.6 147.2c12.8 12.8 32 12.8 44.8 0 12.8-12.8 12.8-32 0-44.8l-153.6-147.2c-6.4 0-12.8-6.4-19.2-6.4zM416-6.4c-6.4 0-19.2 0-25.6 6.4l-153.6 147.2c-12.8 12.8-12.8 32 0 44.8 12.8 12.8 32 12.8 44.8 0l153.6-147.2c12.8-12.8 12.8-32 0-44.8 0-6.4-12.8-6.4-19.2-6.4zM467.2 140.8H268.8c-19.2 0-32 12.8-32 32s12.8 32 32 32h204.8c19.2 0 32-12.8 32-32s-19.2-32-38.4-32zM697.6-57.6c-140.8 0-256 115.2-256 256s115.2 256 256 256 256-115.2 256-256-115.2-256-256-256z m0 448c-108.8 0-192-83.2-192-192s89.6-192 192-192 192 83.2 192 192-89.6 192-192 192zM832 166.4h-96c-38.4 0-70.4 32-70.4 70.4V332.8c0 19.2 12.8 32 32 32s32-12.8 32-32v-96c0-6.4 6.4-6.4 6.4-6.4H832c19.2 0 32-12.8 32-32s-12.8-32-32-32z"  horiz-adv-x="1024" />

    
    <glyph glyph-name="dingwei" unicode="&#59379;" d="M512 352c-76.8 0-134.4 57.6-134.4 134.4S435.2 620.8 512 620.8c76.8 0 134.4-57.6 134.4-134.4S588.8 352 512 352z m0 204.8c-38.4 0-70.4-32-70.4-70.4S473.6 416 512 416 582.4 448 582.4 486.4 550.4 556.8 512 556.8zM249.6 268.8c-51.2 64-76.8 140.8-76.8 217.6 0 185.6 153.6 339.2 339.2 339.2s339.2-153.6 339.2-339.2c0-70.4-19.2-134.4-57.6-192l-51.2 38.4c32 44.8 44.8 96 44.8 153.6 0 153.6-121.6 275.2-275.2 275.2S236.8 640 236.8 486.4c0-64 25.6-128 64-179.2l-51.2-38.4zM512-57.6c-6.4 0-12.8 0-19.2 6.4-12.8 12.8-19.2 32-6.4 44.8l256 339.2c12.8 12.8 32 19.2 44.8 6.4 12.8-12.8 19.2-32 6.4-44.8l-256-339.2c-6.4-6.4-12.8-12.8-25.6-12.8zM512-57.6c-12.8 0-19.2 6.4-25.6 12.8l-256 339.2c-12.8 12.8-6.4 32 6.4 44.8 12.8 12.8 32 6.4 44.8-6.4l256-339.2c12.8-12.8 6.4-32-6.4-44.8-6.4-6.4-12.8-6.4-19.2-6.4z"  horiz-adv-x="1024" />

    
    <glyph glyph-name="fanhui" unicode="&#59380;" d="M646.4-25.6c-6.4 0-19.2 0-25.6 6.4L294.4 307.2c-25.6 32-25.6 76.8 0 102.4l326.4 326.4c12.8 12.8 32 12.8 44.8 0s12.8-32 0-44.8L339.2 364.8v-12.8l326.4-326.4c12.8-12.8 12.8-32 0-44.8-6.4 0-12.8-6.4-19.2-6.4z"  horiz-adv-x="1024" />

    
    <glyph glyph-name="fangda" unicode="&#59381;" d="M460.8 96c-185.6 0-339.2 153.6-339.2 339.2s153.6 339.2 339.2 339.2 339.2-153.6 339.2-339.2-153.6-339.2-339.2-339.2z m0 614.4c-153.6 0-275.2-121.6-275.2-275.2s121.6-275.2 275.2-275.2 275.2 121.6 275.2 275.2-121.6 275.2-275.2 275.2zM870.4-6.4c-6.4 0-19.2 0-25.6 6.4l-153.6 153.6c-12.8 12.8-12.8 32 0 44.8s32 12.8 44.8 0l153.6-153.6c12.8-12.8 12.8-32 0-44.8 0-6.4-12.8-6.4-19.2-6.4zM460.8 256c-19.2 0-32 12.8-32 32V582.4c0 19.2 12.8 32 32 32s32-12.8 32-32v-294.4c0-19.2-12.8-32-32-32zM608 403.2H313.6c-19.2 0-32 12.8-32 32s12.8 32 32 32h294.4c19.2 0 32-12.8 32-32s-12.8-32-32-32z"  horiz-adv-x="1024" />

    
    <glyph glyph-name="eryanghualiu" unicode="&#59382;" d="M219.712 154.24c-99.52 0-177.408 59.776-177.408 136a32 32 0 0 0 64 0c0-38.976 51.968-72 113.408-72 61.504 0 113.472 33.024 113.472 72a31.616 31.616 0 0 1-6.016 20.608 32 32 0 0 0 50.944 38.784c12.672-16.704 19.072-36.608 19.072-59.392 0-76.224-77.952-136-177.472-136zM352.64 298.24a31.872 31.872 0 0 0-23.616 10.432c-33.472 36.672-106.112 53.248-159.168 65.408-18.048 4.096-34.56 7.936-48.064 11.968A97.536 97.536 0 0 0 52.096 479.232c0 75.008 72.832 136 162.304 136s162.304-60.992 162.304-136a32 32 0 0 0-64 0c0 39.04-45.056 72-98.304 72s-98.304-33.024-98.304-72.064c0-5.184 0.96-9.6 2.88-13.44a34.304 34.304 0 0 1 21.056-18.368c12.352-3.648 27.52-7.104 44.096-10.88 61.248-14.08 145.216-33.28 192.128-84.672a31.936 31.936 0 0 0-23.616-53.568zM617.344 152.704c-101.696 0-184.448 104.064-184.448 232s82.752 232 184.448 232c101.76 0 184.512-104.064 184.512-232s-82.752-232-184.512-232z m0 400c-66.432 0-120.448-75.392-120.448-168s54.016-168 120.448-168 120.512 75.392 120.512 168-54.016 168-120.512 168zM932.096 227.456a32 32 0 0 0-24 53.184 10.24 10.24 0 0 1 2.624 6.912c0 11.776-21.248 11.776-21.248 0a32 32 0 0 0-64 0c0 41.216 33.472 74.688 74.624 74.688a74.688 74.688 0 0 0 56-124.032 31.68 31.68 0 0 0-24-10.752zM949.76 153.152h-9.6a32 32 0 0 0 0 64h9.536a32 32 0 0 0 0.064-64zM940.16 153.152h-68.032a32 32 0 0 0 0 64h68.032a32 32 0 0 0 0-64zM872.128 153.152h-7.616a32 32 0 0 0 0 64h7.616a32 32 0 0 0 0-64zM864.512 153.152a40 40 0 0 0-40 39.936c0 13.12 6.656 25.472 17.728 33.024a32 32 0 0 0 49.856-24.832 31.872 31.872 0 0 0-27.584-48.128zM860.16 167.552a31.872 31.872 0 0 0-19.264 57.472c22.72 17.28 58.688 45.952 67.328 55.616a32.064 32.064 0 0 0 47.872-42.496c-15.936-17.856-66.56-56.576-76.544-64.128a32.256 32.256 0 0 0-19.392-6.464z"  horiz-adv-x="1024" />

    
    <glyph glyph-name="fenqushishishuju" unicode="&#59383;" d="M256.448 245.44a32.128 32.128 0 0 0-22.72 54.528l130.304 131.072c24.32 24.448 62.656 28.16 91.264 8.896L553.792 373.76a7.936 7.936 0 0 1 10.048 0.96l180.992 179.712a32 32 0 1 0 45.12-45.44L609.024 329.344c-24.32-24.256-62.592-27.84-90.88-8.64l-98.56 66.176a8.128 8.128 0 0 1-10.176-0.96l-130.304-131.072a31.808 31.808 0 0 0-22.656-9.408zM409.792 42.688a32 32 0 0 0-32 32V688.512a32 32 0 0 0 64 0v-613.824a32 32 0 0 0-32-32zM614.592 42.688a32 32 0 0 0-32 32V688.512a32 32 0 0 0 64 0v-613.824a32 32 0 0 0-32-32zM819.84 450.24H204.672a32 32 0 0 0 0 64h615.104a32 32 0 0 0 0.064-64zM819.84 245.44H204.672a32 32 0 0 0 0 64h615.104a32 32 0 0 0 0.064-64zM779.136 39.744H244.672c-39.68 0-72 32.32-72 72V647.936c0 39.68 32.32 72 72 72h534.464c39.68 0 72-32.32 72-72v-536.192c0-39.68-32.32-72-72-72zM244.672 655.936a8 8 0 0 1-8-8v-536.192c0-4.288 3.648-8 8-8h534.464a8 8 0 0 1 8 8V647.936a8 8 0 0 1-8 8H244.672z"  horiz-adv-x="1024" />

    
    <glyph glyph-name="fenxibaobiao" unicode="&#59384;" d="M819.2 519.04a32 32 0 0 0-32 32V665.536a8 8 0 0 1-8 8h-534.4a8.064 8.064 0 0 1-8.064-8V551.04a32 32 0 0 0-64 0V665.536c0 39.68 32.32 72 72.064 72h534.4c39.68 0 72-32.32 72-72V551.04a32 32 0 0 0-32-32zM409.536 57.344H244.8a72.128 72.128 0 0 0-72.064 72V243.84a32 32 0 0 0 64 0v-114.496c0-4.416 3.648-8 8.064-8h164.736a32 32 0 0 0 0-64zM692.352 119.424a97.28 97.28 0 0 0-96.384 97.728c0 53.952 43.264 97.792 96.384 97.792s96.32-43.904 96.32-97.792c0-53.824-43.2-97.728-96.32-97.728z m0 131.584c-17.856 0-32.384-15.168-32.384-33.792s14.528-33.728 32.384-33.728c17.792 0 32.32 15.104 32.32 33.728s-14.464 33.792-32.32 33.792zM761.024-34.048a32 32 0 0 0-27.072 14.912c-18.496 29.376-64.64 29.376-83.136 0a32.384 32.384 0 0 0-36.992-13.376 257.216 257.216 0 0 0-94.528 55.872 32 32 0 0 0-6.784 37.824 52.736 52.736 0 0 1-1.152 49.856 49.152 49.152 0 0 1-40.384 25.344 32 32 0 0 0-29.632 25.216 268.352 268.352 0 0 0 0.064 111.104 31.872 31.872 0 0 0 29.632 25.28 49.408 49.408 0 0 1 40.384 25.408 53.12 53.12 0 0 1 1.216 49.6 32 32 0 0 0 6.784 37.696 252.8 252.8 0 0 0 95.04 56 32.064 32.064 0 0 0 36.736-13.056c18.368-28.544 63.872-28.544 82.24 0a32.064 32.064 0 0 0 36.736 13.056c35.52-11.52 67.52-30.336 95.04-56a32 32 0 0 0 6.784-37.696 53.12 53.12 0 0 1 1.28-49.664 49.344 49.344 0 0 1 40.256-25.344 32 32 0 0 0 29.632-25.152 264.96 264.96 0 0 0 0.192-111.104 32 32 0 0 0-29.696-25.344 49.408 49.408 0 0 1-40.384-25.408 52.48 52.48 0 0 1-1.152-49.728 31.872 31.872 0 0 0-6.784-37.888 258.24 258.24 0 0 0-94.528-55.872 32 32 0 0 0-9.792-1.536z m-182.208 91.072c10.88-8.192 22.656-15.168 34.944-20.8 41.728 40.896 115.52 40.896 157.248 0a192 192 0 0 1 35.008 20.8c-7.104 28.608-3.2 59.2 11.648 85.44s38.656 45.12 66.496 53.376a195.52 195.52 0 0 1-0.064 42.816 113.408 113.408 0 0 0-66.432 53.248 117.504 117.504 0 0 0-11.776 85.184 185.92 185.92 0 0 1-35.712 21.12c-41.6-39.872-113.984-39.872-155.648 0a187.904 187.904 0 0 1-35.712-21.12c6.912-28.48 3.008-58.944-11.776-85.12a113.28 113.28 0 0 0-66.496-53.312 204.416 204.416 0 0 1-0.064-42.816 113.28 113.28 0 0 0 66.56-53.376c14.912-26.304 18.816-56.832 11.776-85.44zM309.824 259.904a32 32 0 0 0-32 32V444.736l-15.552-9.92a32 32 0 1 0-34.368 53.952l64.768 41.216a32 32 0 0 0 49.152-26.88v-211.2a32 32 0 0 0-32-32zM438.4 286.272a32 32 0 0 0-25.472 12.544c-19.712 25.792-30.528 60.864-30.528 98.624 0 77.184 45.12 137.6 102.72 137.6 39.936 0 75.392-29.44 92.416-76.864a32 32 0 1 0-60.224-21.632c-7.424 20.672-20.352 34.496-32.192 34.496-18.304 0-38.72-31.488-38.72-73.6 0-23.488 6.336-45.248 17.408-59.776a32.064 32.064 0 0 0-25.408-51.392zM738.88 450.816a33.024 33.024 0 0 0-11.84 2.24 32 32 0 0 0-27.456 51.456l13.888 18.048c8.384 10.816 22.784 15.168 35.712 10.816a32 32 0 0 0 21.696-30.336v-20.224a32 32 0 0 0-32-32zM738.944 450.816a30.528 30.528 0 0 0-5.888 0.512l-12.288 1.92a32.128 32.128 0 0 0 8.512 63.488c5.184-0.704 10.368-1.472 15.424-2.432a32 32 0 0 0-5.76-63.488z"  horiz-adv-x="1024" />

    
    <glyph glyph-name="fadianguangfudianzhan" unicode="&#59385;" d="M535.488 275.136h-52.096a32 32 0 0 0-32 32v52.16a32 32 0 0 0 32 32h52.096a32 32 0 0 0 32-32v-52.16c0-17.728-14.272-32-32-32zM714.88 275.136h-52.224a32 32 0 0 0-32 32v52.16a32 32 0 0 0 32 32h52.224a32 32 0 0 0 32-32v-52.16a32 32 0 0 0-32-32zM714.88 437.312h-52.224a32 32 0 0 0-32 32v52.16a32 32 0 0 0 32 32h52.224a32 32 0 0 0 32-32v-52.096a32 32 0 0 0-32-32.064zM355.52 113.024H303.36a32 32 0 0 0-32 32v52.096a32 32 0 0 0 32 32h52.096a32 32 0 0 0 32-32v-52.096a31.872 31.872 0 0 0-31.936-32zM535.488 113.024h-52.096a32 32 0 0 0-32 32v52.096a32 32 0 0 0 32 32h52.096a32 32 0 0 0 32-32v-52.096c0-17.728-14.272-32-32-32zM714.88 113.024h-52.224a32 32 0 0 0-32 32v52.096a32 32 0 0 0 32 32h52.224a32 32 0 0 0 32-32v-52.096a32 32 0 0 0-32-32zM303.36 400.32a134.784 134.784 0 0 0-134.656 134.528c0 74.176 60.416 134.528 134.656 134.528 74.176 0 134.528-60.352 134.528-134.528A134.656 134.656 0 0 0 303.36 400.32z m0 205.056c-38.912 0-70.656-31.616-70.656-70.528a70.592 70.592 0 0 1 141.184 0c0 38.912-31.616 70.528-70.528 70.528zM303.36 656.704a32 32 0 0 0-32 32v51.84a32 32 0 0 0 64 0v-51.84a32 32 0 0 0-32-32zM194.56 611.648a32.128 32.128 0 0 0-22.656 9.344l-36.672 36.672a32 32 0 0 0 45.248 45.248l36.672-36.672a32 32 0 0 0-22.592-54.592zM149.504 502.848h-51.904a32 32 0 0 0 0 64h51.904a32 32 0 0 0 0-64zM157.888 357.376a32 32 0 0 0-22.592 54.656l36.672 36.608a32 32 0 1 0 45.184-45.248l-36.672-36.672a31.872 31.872 0 0 0-22.592-9.344zM303.36 297.152a32 32 0 0 0-32 32v51.84a32 32 0 0 0 64 0v-51.904a31.936 31.936 0 0 0-32-31.936zM448.768 357.376a32.128 32.128 0 0 0-22.656 9.344l-36.608 36.736a32 32 0 0 0 45.248 45.248l36.608-36.672a32 32 0 0 0-22.592-54.656zM508.992 502.848h-51.712a32 32 0 0 0 0 64h51.776a32 32 0 1 0-0.064-64zM412.096 611.712a32 32 0 0 0-22.592 54.656l36.736 36.608a32.128 32.128 0 0 0 45.248-45.376l-36.8-36.608a31.808 31.808 0 0 0-22.592-9.28zM777.344-11.008H241.472a72.192 72.192 0 0 0-72.128 72.128V340.352a32 32 0 0 0 64 0v-279.232c0-4.48 3.648-8.128 8.128-8.128h535.872c4.48 0 8.128 3.648 8.128 8.128V600.256a8.064 8.064 0 0 1-8.128 8.064H509.504a32 32 0 0 0 0 64h267.904c39.744 0 72.128-32.32 72.128-72.064v-539.136a72.32 72.32 0 0 0-72.192-72.128z"  horiz-adv-x="1024" />

    
    <glyph glyph-name="fenxibaobiao1" unicode="&#59386;" d="M307.264 198.464a32 32 0 0 0-22.656 54.592l125.248 125.248a72.256 72.256 0 0 0 101.888 0l45.504-45.504c2.624-2.624 8.768-2.624 11.392 0l125.248 125.312a32 32 0 0 0 45.248-45.248L613.888 287.552a73.664 73.664 0 0 0-101.888 0l-45.504 45.504c-2.688 2.624-8.704 2.624-11.392 0l-125.248-125.248a31.616 31.616 0 0 0-22.592-9.344zM815.36 505.536h-161.024c-39.68 0-71.936 32.32-71.936 72V739.264a32 32 0 0 0 64 0v-161.664c0-4.416 3.584-8 7.936-8h161.024a32 32 0 0 0 0-64.064zM779.264-8.448H244.8c-39.68 0-72 32.32-72 72V702.848c0 39.68 32.32 72 72 72h353.088c19.264 0 37.312-7.488 50.88-21.056l181.376-182.016c13.504-13.632 20.928-31.68 20.928-50.816l0.192-457.344c0-39.744-32.32-72.064-72-72.064zM244.8 710.848a8 8 0 0 1-8-8v-639.296c0-4.416 3.584-8 8-8h534.464a8 8 0 0 1 8 8l-0.192 457.408-183.616 187.648-358.656 2.24z"  horiz-adv-x="1024" />

    
    <glyph glyph-name="fuxuankuang" unicode="&#59387;" d="M779.2 43.904h-534.4c-39.68 0-72 32.32-72 72V652.096c0 39.68 32.32 72 72 72h534.4c39.744 0 72.064-32.32 72.064-72v-536.256c0-39.68-32.32-71.936-72.064-71.936z m-534.4 616.192a8 8 0 0 1-8-8v-536.256c0-4.416 3.584-8 8-8h534.4a8.192 8.192 0 0 1 8.064 8V652.096a8.128 8.128 0 0 1-8.064 8h-534.4zM457.024 266.112c-19.2 0-37.312 7.488-50.88 21.12l-70.4 70.336a32 32 0 0 0 45.248 45.248l70.4-70.336c3.136-3.2 8.192-3.136 11.328 0l230.784 230.784a32 32 0 0 0 45.248-45.248L507.968 287.232c-13.632-13.632-31.744-21.12-50.944-21.12z"  horiz-adv-x="1024" />

    
    <glyph glyph-name="fenxiang1" unicode="&#59388;" d="M780.8 44.8H243.2c-38.4 0-70.4 32-70.4 70.4V652.8c0 38.4 32 70.4 70.4 70.4h217.6c19.2 0 32-12.8 32-32s-12.8-32-32-32H243.2c-6.4 0-6.4-6.4-6.4-6.4v-531.2c0-6.4 6.4-6.4 6.4-6.4h537.6c6.4 0 6.4 6.4 6.4 6.4V332.8c0 19.2 12.8 32 32 32s32-12.8 32-32v-217.6c0-38.4-32-70.4-70.4-70.4zM716.8 403.2c-6.4 0-19.2 0-25.6 6.4-12.8 12.8-12.8 32 0 44.8l153.6 153.6c12.8 12.8 32 12.8 44.8 0s12.8-32 0-44.8l-153.6-153.6s-12.8-6.4-19.2-6.4zM870.4 556.8c-6.4 0-19.2 0-25.6 6.4l-153.6 153.6c-12.8 12.8-12.8 32 0 44.8s32 12.8 44.8 0L896 614.4c12.8-12.8 12.8-32 0-44.8-6.4-6.4-19.2-12.8-25.6-12.8zM870.4 556.8h-204.8c-19.2 0-32 12.8-32 32s12.8 32 32 32h204.8c19.2 0 32-12.8 32-32s-12.8-32-32-32zM409.6 300.8c-19.2 0-32 12.8-32 32 0 160 128 288 288 288 19.2 0 32-12.8 32-32s-12.8-32-32-32c-121.6 0-224-102.4-224-224 0-19.2-12.8-32-32-32z"  horiz-adv-x="1024" />

    
    <glyph glyph-name="fenglifadian" unicode="&#59389;" d="M512 384m-51.2 0a51.2 51.2 0 1 1 102.4 0 51.2 51.2 0 1 1-102.4 0ZM461.952 447.488a32.192 32.192 0 0 0-32 32V746.944c0 23.808 18.88 43.136 42.048 43.136h9.792c61.888 0 112.256-54.464 112.256-121.344v-189.184a32.128 32.128 0 0 0-47.808-27.904c-14.976 8.512-21.696 9.984-34.24 9.984a53.12 53.12 0 0 1-33.536-9.536 31.872 31.872 0 0 0-16.512-4.608zM512 525.632c6.464 0 12.352-0.32 18.048-1.024V668.672c0 26.688-15.36 49.152-36.096 55.552v-199.552c5.888 0.704 11.84 0.96 18.048 0.96zM216.64 125.568a41.728 41.728 0 0 0-36.416 20.928l-4.736 8.192c-30.976 53.696-8.96 124.48 48.96 157.952l163.904 94.592a32.128 32.128 0 0 0 48-27.584c0.064-17.152 2.176-23.68 8.448-34.56 6.656-11.52 11.264-16.64 24.896-24.128a31.936 31.936 0 0 0 0.64-55.744l-231.68-133.76a61.44 61.44 0 0 0-22.016-5.888z m164.608 203.712L256.448 257.28c-23.04-13.312-34.816-37.824-30.08-58.944l172.864 99.776a146.688 146.688 0 0 0-17.984 31.168zM781.696 153.216c-22.272 0-44.416 6.016-64.192 17.408l-163.84 94.656a31.936 31.936 0 0 0-0.192 55.36c14.912 8.64 19.52 13.696 25.728 24.576a53.376 53.376 0 0 1 8.576 33.664 31.808 31.808 0 0 0 15.744 28.16 31.808 31.808 0 0 0 32.256 0.128l231.552-133.696a44.032 44.032 0 0 0 20.416-26.176 41.6 41.6 0 0 0-3.968-31.616l-4.992-8.576c-19.456-33.792-55.808-53.888-97.088-53.888zM624.768 298.048l124.736-72.064c22.144-12.672 50.432-10.88 66.112 3.456l-172.8 99.84a131.008 131.008 0 0 0-8.192-16.064c-3.2-5.568-6.464-10.56-9.856-15.168z"  horiz-adv-x="1024" />

    
    <glyph glyph-name="fuzhi" unicode="&#59390;" d="M204.48 48.32a32 32 0 0 0-32 32V638.528c0 38.656 32.32 70.144 72 70.144h431.488a32 32 0 0 0 0-64H244.48c-4.8 0-8-3.136-8-6.144v-558.208a32 32 0 0 0-32-32zM727.104-38.144H346.752c-39.616 0-71.872 31.424-71.872 70.144V540.992c0 38.656 32.256 70.08 71.872 70.08h380.352c39.68 0 71.936-31.424 71.936-70.08V32c0-38.656-32.256-70.144-71.936-70.144zM346.752 547.072c-4.672 0-7.872-3.2-7.872-6.08V32c0-2.88 3.2-6.144 7.872-6.144h380.352c4.736 0 7.936 3.2 7.936 6.144V540.992c0 2.944-3.2 6.08-7.936 6.08H346.752z"  horiz-adv-x="1024" />

    
    <glyph glyph-name="gaojing" unicode="&#59391;" d="M768 96H256c-19.2 0-32 12.8-32 32s12.8 32 32 32h512c19.2 0 32-12.8 32-32s-12.8-32-32-32zM665.6 454.4c-19.2 0-32 12.8-32 32C633.6 556.8 576 608 512 608c-70.4 0-121.6-57.6-121.6-121.6 0-19.2-12.8-32-32-32s-32 12.8-32 32c0 102.4 83.2 185.6 185.6 185.6s185.6-83.2 185.6-185.6c0-19.2-12.8-32-32-32zM358.4 96c-19.2 0-32 12.8-32 32V486.4c0 19.2 12.8 32 32 32s32-12.8 32-32V128c0-19.2-12.8-32-32-32zM665.6 96c-19.2 0-32 12.8-32 32V486.4c0 19.2 12.8 32 32 32s32-12.8 32-32V128c0-19.2-12.8-32-32-32zM512-57.6c-19.2 0-32 12.8-32 32v51.2c0 19.2 12.8 32 32 32s32-12.8 32-32v-51.2c0-19.2-12.8-32-32-32zM512 659.2c-19.2 0-32 12.8-32 32v51.2c0 19.2 12.8 32 32 32s32-12.8 32-32v-51.2c0-19.2-12.8-32-32-32zM774.4 198.4c-6.4 0-12.8 0-19.2 6.4-12.8 6.4-19.2 25.6-12.8 44.8 51.2 83.2 51.2 192 0 275.2-6.4 12.8-6.4 32 12.8 44.8 12.8 6.4 32 6.4 44.8-12.8 57.6-102.4 57.6-236.8 0-339.2 0-12.8-12.8-19.2-25.6-19.2zM864 147.2c-6.4 0-12.8 0-19.2 6.4-12.8 6.4-19.2 25.6-12.8 44.8 70.4 115.2 70.4 262.4 0 377.6-6.4 12.8-6.4 32 12.8 44.8 12.8 6.4 32 6.4 44.8-12.8 76.8-134.4 76.8-307.2 0-441.6 0-12.8-12.8-19.2-25.6-19.2zM249.6 198.4c-12.8 0-19.2 6.4-25.6 12.8-64 108.8-64 236.8 0 339.2 6.4 19.2 25.6 25.6 38.4 12.8 12.8-6.4 19.2-25.6 12.8-44.8-51.2-83.2-51.2-192 0-275.2 6.4-12.8 6.4-32-12.8-44.8h-12.8zM160 147.2c-12.8 0-19.2 6.4-25.6 12.8C57.6 294.4 57.6 467.2 134.4 601.6c6.4 12.8 25.6 19.2 44.8 12.8 12.8-6.4 19.2-25.6 6.4-44.8-70.4-115.2-64-262.4 0-377.6 6.4-12.8 6.4-32-12.8-44.8h-12.8z"  horiz-adv-x="1024" />

    
    <glyph glyph-name="fupin" unicode="&#59392;" d="M512.448 300.8a32 32 0 0 0-23.744 10.56l-193.216 213.76a157.696 157.696 0 0 0-45.696 111.808c0 42.688 16.64 82.816 46.784 113.024a160.448 160.448 0 0 0 135.872 45.184c29.696-4.288 56.896-16.512 79.552-35.52a157.888 157.888 0 0 0 79.744 35.52 160.448 160.448 0 0 0 135.68-45.184 160.128 160.128 0 0 0 0-226.048L536.192 311.36a32.064 32.064 0 0 0-23.744-10.56zM409.344 732.8c-25.28 0-49.28-9.856-67.52-28.096a95.424 95.424 0 0 1-28.032-67.776c0-25.536 9.984-49.6 28.032-67.776l170.496-188.608 168.64 187.392a96.384 96.384 0 0 1 1.216 136.704 95.36 95.36 0 0 1-81.344 27.072 94.4 94.4 0 0 1-62.08-35.968 32 32 0 0 0-43.712-9.472 32.896 32.896 0 0 0-9.536 9.152 95.104 95.104 0 0 1-76.16 37.376zM254.848-57.344a30.4 30.4 0 0 0-22.72 9.472l-152.448 154.048a32 32 0 0 0 0.128 45.12l204.8 204.8a32 32 0 0 0 22.656 9.344h102.464a32 32 0 0 0 0-64H320.512l-172.928-172.928 107.456-108.544 81.92 81.92a32 32 0 0 0 22.656 9.344h292.48l199.808 207.744a32 32 0 1 0 46.144-44.352l-209.28-217.536a32.128 32.128 0 0 0-23.04-9.792H372.8L277.504-48a32 32 0 0 0-22.656-9.344zM410.816 170.24a32 32 0 0 0 0 64l212.864 0.192 156.608 157.056a32.128 32.128 0 0 0 45.376-45.248l-166.016-166.464a32.064 32.064 0 0 0-22.656-9.344l-226.176-0.192zM874.944 264.896a32 32 0 0 0-22.656 54.592c7.36 7.36 7.36 19.392 0 26.752s-19.392 7.36-26.752 0a32 32 0 0 0-45.248 45.248 83.008 83.008 0 0 0 117.248 0 83.008 83.008 0 0 0 0-117.248 31.616 31.616 0 0 0-22.592-9.344zM666.304 301.504h-51.712a32 32 0 0 0 0 64h51.776a32 32 0 1 0-0.064-64z"  horiz-adv-x="1024" />

    
    <glyph glyph-name="gaojing1" unicode="&#59393;" d="M511.36 317.504a32 32 0 0 0-32 32V624.448a32 32 0 0 0 64 0v-274.944a32 32 0 0 0-32-32zM512.96 152.57600000000002a32 32 0 0 0-32 32v54.912a32 32 0 0 0 64 0v-54.912a32 32 0 0 0-32-32zM826.624 42.879999999999995H199.104c-26.688 0-50.688 13.696-64.384 36.544a74.048 74.048 0 0 0-1.536 73.856l313.344 581.696c26.176 48.512 105.728 48.64 131.968 0.064l314.112-581.696c12.672-23.36 12.032-51.008-1.536-73.92-13.696-22.848-37.76-36.544-64.448-36.544zM512.512 710.4a10.496 10.496 0 0 1-9.6-5.696l-313.344-581.696a10.88 10.88 0 0 1 9.6-16.064h627.52c5.44 0 8.256 3.392 9.408 5.376s2.752 6.016 0.256 10.752L522.176 704.64a10.688 10.688 0 0 1-9.664 5.76z"  horiz-adv-x="1024" />

    
    </font>
</defs>
</svg>
